<svg xmlns="http://www.w3.org/2000/svg" xmlns:xlink="http://www.w3.org/1999/xlink" width="500" zoomAndPan="magnify" viewBox="0 0 375 374.999991" height="500" preserveAspectRatio="xMidYMid meet" version="1.0"><defs><g/><clipPath id="539b9ead1d"><path d="M 112 71.375 L 257 71.375 L 257 215 L 112 215 Z M 112 71.375 " clip-rule="nonzero"/></clipPath><clipPath id="c674b25de6"><path d="M 89 96 L 280 96 L 280 224.375 L 89 224.375 Z M 89 96 " clip-rule="nonzero"/></clipPath><clipPath id="a510771457"><path d="M 271 189 L 372 189 L 372 222 L 271 222 Z M 271 189 " clip-rule="nonzero"/></clipPath><clipPath id="88a28b25fb"><path d="M 375 0 L 0 0 L 0 375 L 375 375 Z M 276.90625 218.964844 L 273.480469 220.054688 L 274.070312 221.914062 L 277.496094 220.824219 Z M 276.90625 218.964844 " clip-rule="evenodd"/></clipPath><clipPath id="44104086b5"><path d="M 375 0 L 0 0 L 0 375 L 375 375 Z M 287.027344 215.753906 L 283.445312 216.890625 L 284.035156 218.75 L 287.617188 217.613281 Z M 287.027344 215.753906 " clip-rule="evenodd"/></clipPath><clipPath id="d57d388e3d"><path d="M 375 0 L 0 0 L 0 375 L 375 375 Z M 290.148438 214.761719 L 286.722656 215.851562 L 287.3125 217.710938 L 290.738281 216.621094 Z M 290.148438 214.761719 " clip-rule="evenodd"/></clipPath><clipPath id="e0cde5ec61"><path d="M 375 0 L 0 0 L 0 375 L 375 375 Z M 313.03125 207.5 L 309.605469 208.585938 L 310.195312 210.445312 L 313.621094 209.359375 Z M 313.03125 207.5 " clip-rule="evenodd"/></clipPath><clipPath id="a473281815"><path d="M 375 0 L 0 0 L 0 375 L 375 375 Z M 338.777344 199.324219 L 335.042969 200.511719 L 335.632812 202.371094 L 339.367188 201.183594 Z M 338.777344 199.324219 " clip-rule="evenodd"/></clipPath><clipPath id="7c38bba619"><path d="M 375 0 L 0 0 L 0 375 L 375 375 Z M 349.570312 195.902344 L 346.144531 196.988281 L 346.734375 198.847656 L 350.160156 197.757812 Z M 349.570312 195.902344 " clip-rule="evenodd"/></clipPath><clipPath id="563ff3f33c"><path d="M 375 0 L 0 0 L 0 375 L 375 375 Z M 364.652344 191.113281 L 361.226562 192.199219 L 361.816406 194.058594 L 365.242188 192.96875 Z M 364.652344 191.113281 " clip-rule="evenodd"/></clipPath></defs><rect x="-37.5" width="450" fill="#ffffff" y="-37.499999" height="449.999989" fill-opacity="1"/><rect x="-37.5" width="450" fill="#ffffff" y="-37.499999" height="449.999989" fill-opacity="1"/><g clip-path="url(#539b9ead1d)"><path fill="#6a0a00" d="M 228.757812 86.898438 C 240.273438 96 248.761719 108.375 253.003906 122.453125 C 253.246094 123.179688 254.214844 126.695312 254.335938 127.546875 C 255.550781 132.644531 256.035156 137.984375 256.035156 143.203125 C 256.035156 152.179688 254.460938 161.039062 251.1875 169.289062 C 250.699219 170.382812 249.972656 171.230469 249.125 171.835938 C 249.25 172.929688 249.125 174.019531 248.640625 175.113281 C 236.515625 199.5 211.664062 214.910156 184.390625 214.910156 C 151.660156 214.910156 123.050781 192.707031 115.050781 161.039062 C 114.929688 160.917969 113.59375 154.121094 113.59375 154 C 112.988281 150.484375 112.746094 146.84375 112.746094 143.203125 C 112.746094 142.109375 112.746094 141.140625 112.867188 140.046875 C 112.867188 139.078125 113.113281 136.285156 113.234375 135.316406 C 114.324219 125.609375 117.234375 116.265625 122.082031 107.773438 L 126.445312 101.101562 C 139.902344 82.53125 161.355469 71.488281 184.390625 71.488281 C 197.847656 71.488281 210.9375 75.253906 222.335938 82.410156 C 222.699219 82.53125 228.273438 86.535156 228.757812 86.898438 Z M 228.757812 86.898438 " fill-opacity="1" fill-rule="evenodd"/></g><path fill="#ffb700" d="M 184.390625 76.585938 C 197.363281 76.585938 209.488281 80.226562 219.667969 86.65625 L 182.453125 88.597656 L 225.609375 90.902344 C 236.15625 99.273438 244.15625 110.679688 248.15625 123.90625 L 203.789062 126.210938 L 249.371094 128.636719 C 250.460938 133.367188 250.949219 138.222656 250.949219 143.199219 C 250.949219 151.8125 249.371094 159.941406 246.460938 167.464844 L 194.09375 170.253906 L 244.039062 172.804688 C 233.125 194.765625 210.582031 209.8125 184.394531 209.8125 C 153.359375 209.8125 127.300781 188.578125 119.902344 159.703125 L 181.246094 156.550781 L 118.570312 153.273438 C 118.082031 150 117.84375 146.601562 117.84375 143.207031 C 117.84375 142.234375 117.84375 141.265625 117.964844 140.292969 L 159.910156 138.109375 L 118.324219 135.925781 C 119.296875 126.703125 122.207031 118.089844 126.570312 110.324219 L 188.394531 107.171875 L 130.566406 104.128906 C 142.6875 87.382812 162.324219 76.585938 184.390625 76.585938 Z M 184.390625 76.585938 " fill-opacity="1" fill-rule="evenodd"/><g clip-path="url(#c674b25de6)"><path fill="#6a0a00" d="M 265.492188 203.136719 C 268.039062 205.441406 269.734375 208.71875 269.734375 212.355469 C 269.734375 218.90625 264.402344 224.25 257.730469 224.25 L 212.273438 224.25 C 211.183594 224.25 210.335938 224.003906 209.484375 223.398438 C 208.636719 224.003906 207.667969 224.25 206.570312 224.25 L 182.449219 224.25 C 180.632812 224.25 179.175781 223.398438 178.207031 222.066406 C 175.90625 223.398438 173.238281 224.25 170.449219 224.25 L 166.449219 224.25 C 166.085938 224.25 165.601562 224.25 165.238281 224.25 C 164.992188 224.25 164.75 224.25 164.511719 224.25 L 94.5625 224.25 C 92.378906 224.25 90.558594 223.035156 89.710938 220.972656 C 88.984375 218.910156 89.589844 216.726562 91.167969 215.269531 L 150.929688 163.703125 C 154.324219 160.550781 158.449219 156.546875 163.417969 156.789062 C 168.023438 156.910156 172.628906 161.277344 176.144531 163.949219 C 176.265625 164.070312 176.386719 164.070312 176.507812 164.191406 L 189.722656 175.597656 L 203.542969 164.554688 C 203.664062 164.429688 203.785156 164.429688 203.90625 164.308594 C 207.300781 162.125 211.425781 158.484375 215.542969 158.242188 C 219.664062 158 223.179688 160.667969 226.214844 162.976562 L 247.183594 178.261719 C 250.578125 169.523438 251.304688 158.242188 243.183594 151.8125 C 241.847656 152.785156 240.394531 153.632812 238.699219 154.242188 C 231.910156 156.910156 223.910156 155.574219 216.878906 154.484375 C 214.210938 154.121094 211.425781 154.484375 208.878906 154.972656 C 205 155.457031 200.636719 155.941406 198.332031 151.941406 C 197 149.390625 196.753906 146.238281 197.484375 143.445312 C 197.726562 142.839844 197.972656 142.230469 198.210938 141.746094 C 197.484375 141.140625 196.875 140.410156 196.394531 139.316406 C 195.425781 136.769531 195.546875 133.371094 196.027344 130.703125 C 197 126.578125 199.300781 123.058594 203.058594 120.996094 C 209.847656 117.109375 217.847656 120.507812 223.789062 116.019531 C 230.332031 111.042969 238.457031 108.375 246.582031 109.46875 L 253.367188 99.277344 C 254.335938 97.820312 255.914062 96.972656 257.730469 96.972656 C 259.546875 97.09375 261.125 98.0625 261.972656 99.644531 C 265.976562 106.4375 266.824219 113.113281 265.367188 120.511719 C 281.855469 140.527344 286.21875 184.695312 265.492188 203.136719 Z M 265.492188 203.136719 " fill-opacity="1" fill-rule="evenodd"/></g><path fill="#ffd48a" d="M 254.09375 219.152344 L 257.726562 219.152344 C 261.484375 219.152344 264.636719 216.121094 264.636719 212.355469 C 264.636719 209.082031 262.332031 206.410156 259.304688 205.683594 C 257.605469 205.199219 253.851562 205.320312 250.941406 205.320312 C 282.824219 196.824219 278.339844 141.257812 259.789062 121.84375 C 261.726562 115.050781 261.484375 108.859375 257.605469 102.066406 L 248.875 115.171875 C 240.753906 112.867188 232.753906 115.65625 226.8125 120.023438 C 219.296875 125.726562 211.050781 122.328125 205.597656 125.363281 C 200.144531 128.515625 200.382812 135.429688 201.113281 137.375 C 201.960938 139.3125 214.933594 135.070312 220.027344 140.289062 C 220.027344 140.289062 211.296875 138.710938 206.566406 140.652344 C 201.71875 142.472656 201.597656 147.203125 202.808594 149.507812 C 204.023438 151.691406 210.566406 148.417969 217.597656 149.507812 C 232.507812 151.8125 243.296875 153.148438 248.992188 131.914062 C 249.480469 138.832031 248.628906 144.410156 246.324219 147.808594 C 263.054688 161.035156 252.023438 190.152344 236.992188 198.769531 C 236.992188 198.769531 242.808594 191.128906 246.691406 184.328125 L 223.292969 167.101562 C 215.050781 161.15625 215.660156 162.613281 206.6875 168.558594 L 192.503906 179.71875 L 204.261719 194.886719 L 173.109375 168.070312 C 163.410156 160.914062 163.53125 158.851562 154.316406 167.46875 L 94.5625 219.152344 L 164.507812 219.152344 C 164.507812 219.152344 164.386719 219.03125 164.386719 218.90625 C 164.988281 219.03125 165.71875 219.152344 166.445312 219.152344 L 170.445312 219.152344 C 175.660156 219.152344 180.023438 214.785156 180.023438 209.566406 C 180.023438 204.710938 176.507812 200.710938 171.902344 199.980469 C 172.390625 199.980469 172.992188 199.859375 173.480469 199.859375 C 179.90625 199.859375 185.117188 205.195312 185.117188 211.503906 L 185.117188 211.75 C 185.117188 214.539062 184.027344 217.207031 182.449219 219.152344 L 206.570312 219.152344 C 206.085938 218.058594 205.847656 216.722656 205.847656 215.390625 L 205.847656 215.144531 C 205.847656 210.046875 209.964844 205.804688 215.179688 205.804688 C 215.542969 205.804688 216.027344 205.804688 216.390625 205.925781 C 212.753906 206.53125 209.847656 209.6875 209.847656 213.566406 C 209.847656 215.75 210.816406 217.691406 212.273438 219.148438 L 254.09375 219.148438 Z M 254.09375 219.152344 " fill-opacity="1" fill-rule="evenodd"/><g fill="#96001f" fill-opacity="1"><g transform="translate(18.078036, 289.190739)"><g><path d="M 1.796875 -47.8125 L 14.875 -47.8125 L 14.875 0 L 1.796875 0 Z M 1.796875 -47.8125 "/></g></g></g><g fill="#96001f" fill-opacity="1"><g transform="translate(34.758017, 289.190739)"><g><path d="M 1.796875 -47.8125 L 31.796875 -47.8125 C 34.597656 -47.8125 37.148438 -47.128906 39.453125 -45.765625 C 41.753906 -44.410156 43.582031 -42.582031 44.9375 -40.28125 C 46.300781 -37.988281 46.984375 -35.441406 46.984375 -32.640625 L 46.984375 0 L 33.90625 0 L 33.90625 -28.921875 C 33.90625 -30.441406 33.515625 -31.8125 32.734375 -33.03125 C 31.953125 -34.25 30.921875 -35.21875 29.640625 -35.9375 C 28.359375 -36.65625 26.914062 -37.015625 25.3125 -37.015625 L 14.875 -37.015625 L 14.875 0 L 1.796875 0 Z M 1.796875 -47.8125 "/></g></g></g><g fill="#96001f" fill-opacity="1"><g transform="translate(83.177966, 289.190739)"><g/></g></g><g fill="#96001f" fill-opacity="1"><g transform="translate(101.177954, 289.190739)"><g><path d="M 18.65625 -47.8125 L 43.6875 -47.8125 L 43.6875 -37.015625 L 22.140625 -37.015625 C 20.742188 -37.015625 19.453125 -36.59375 18.265625 -35.75 C 17.085938 -34.914062 16.5 -33.578125 16.5 -31.734375 C 16.5 -30.773438 16.78125 -29.882812 17.34375 -29.0625 C 17.90625 -28.25 18.625 -27.59375 19.5 -27.09375 C 20.375 -26.59375 21.296875 -26.34375 22.265625 -26.34375 L 43.6875 -26.34375 L 43.6875 -15.546875 L 22.5 -15.59375 C 20.9375 -15.59375 19.566406 -15.234375 18.390625 -14.515625 C 17.210938 -13.796875 16.289062 -12.835938 15.625 -11.640625 C 14.96875 -10.441406 14.640625 -9.140625 14.640625 -7.734375 C 14.640625 -6.253906 15 -4.9375 15.71875 -3.78125 C 16.4375 -2.625 17.40625 -1.703125 18.625 -1.015625 C 19.84375 -0.335938 21.210938 0 22.734375 0 L 43.6875 0 L 43.6875 10.796875 L 21.359375 10.796875 C 18.796875 10.796875 16.285156 10.351562 13.828125 9.46875 C 11.367188 8.59375 9.164062 7.34375 7.21875 5.71875 C 5.28125 4.101562 3.734375 2.1875 2.578125 -0.03125 C 1.421875 -2.25 0.84375 -4.695312 0.84375 -7.375 C 0.84375 -9.332031 1.234375 -11.257812 2.015625 -13.15625 C 2.796875 -15.0625 3.882812 -16.742188 5.28125 -18.203125 C 6.675781 -19.671875 8.316406 -20.703125 10.203125 -21.296875 C 8.796875 -21.773438 7.523438 -22.644531 6.390625 -23.90625 C 5.253906 -25.164062 4.351562 -26.644531 3.6875 -28.34375 C 3.03125 -30.050781 2.703125 -31.820312 2.703125 -33.65625 C 2.703125 -35.65625 3.160156 -37.515625 4.078125 -39.234375 C 4.992188 -40.953125 6.222656 -42.453125 7.765625 -43.734375 C 9.304688 -45.015625 11.023438 -46.015625 12.921875 -46.734375 C 14.828125 -47.453125 16.738281 -47.8125 18.65625 -47.8125 Z M 18.65625 -47.8125 "/></g></g></g><g fill="#96001f" fill-opacity="1"><g transform="translate(146.657904, 289.190739)"><g><path d="M 24.84375 -47.8125 L 50.578125 -47.8125 L 50.578125 -37.015625 L 27.546875 -37.015625 C 25.097656 -37.015625 22.894531 -36.394531 20.9375 -35.15625 C 18.976562 -33.914062 17.4375 -32.304688 16.3125 -30.328125 C 15.195312 -28.347656 14.640625 -26.21875 14.640625 -23.9375 C 14.640625 -21.257812 15.257812 -18.941406 16.5 -16.984375 C 17.738281 -15.023438 19.394531 -13.503906 21.46875 -12.421875 C 23.550781 -11.335938 25.816406 -10.796875 28.265625 -10.796875 L 37.5 -10.796875 L 37.5 -33.90625 L 50.578125 -33.90625 L 50.578125 0 L 24.90625 0 C 21.625 0 18.519531 -0.609375 15.59375 -1.828125 C 12.675781 -3.046875 10.117188 -4.742188 7.921875 -6.921875 C 5.722656 -9.109375 3.992188 -11.648438 2.734375 -14.546875 C 1.472656 -17.453125 0.84375 -20.582031 0.84375 -23.9375 C 0.84375 -27.375 1.421875 -30.539062 2.578125 -33.4375 C 3.734375 -36.34375 5.378906 -38.875 7.515625 -41.03125 C 9.660156 -43.195312 12.203125 -44.867188 15.140625 -46.046875 C 18.085938 -47.222656 21.320312 -47.8125 24.84375 -47.8125 Z M 24.84375 -47.8125 "/></g></g></g><g fill="#96001f" fill-opacity="1"><g transform="translate(199.037852, 289.190739)"><g><path d="M 17.34375 -37.015625 L 28.375 -5.515625 L 40.375 -24.0625 C 41.0625 -25.101562 41.539062 -26.019531 41.8125 -26.8125 C 42.09375 -27.613281 42.253906 -28.476562 42.296875 -29.40625 C 42.378906 -31.601562 41.8125 -33.421875 40.59375 -34.859375 C 39.375 -36.296875 37.5625 -37.015625 35.15625 -37.015625 Z M 0 -47.8125 L 13.5625 -47.8125 L 17.21875 -37.734375 L 17.21875 -47.8125 L 37.859375 -47.8125 C 41.617188 -47.8125 44.859375 -47.0625 47.578125 -45.5625 C 50.296875 -44.0625 52.394531 -42.039062 53.875 -39.5 C 55.351562 -36.96875 56.09375 -34.117188 56.09375 -30.953125 C 56.09375 -28.515625 55.765625 -26.351562 55.109375 -24.46875 C 54.453125 -22.59375 53.722656 -21.015625 52.921875 -19.734375 L 33.234375 10.796875 L 17.765625 10.796875 L 24.59375 0 L 16.5 0 Z M 0 -47.8125 "/></g></g></g><g fill="#96001f" fill-opacity="1"><g transform="translate(255.977801, 289.190739)"><g><path d="M 1.796875 -47.8125 L 26.765625 -47.8125 C 30.203125 -47.8125 33.390625 -47.203125 36.328125 -45.984375 C 39.265625 -44.765625 41.832031 -43.066406 44.03125 -40.890625 C 46.238281 -38.710938 47.953125 -36.171875 49.171875 -33.265625 C 50.390625 -30.367188 51 -27.21875 51 -23.8125 C 51 -20.695312 50.425781 -17.707031 49.28125 -14.84375 C 48.144531 -11.988281 46.546875 -9.441406 44.484375 -7.203125 C 42.429688 -4.960938 40.023438 -3.203125 37.265625 -1.921875 C 34.503906 -0.640625 31.503906 0 28.265625 0 L 17.765625 0 L 17.765625 -10.796875 L 24.84375 -10.796875 C 27.082031 -10.796875 29.128906 -11.273438 30.984375 -12.234375 C 32.847656 -13.203125 34.347656 -14.65625 35.484375 -16.59375 C 36.628906 -18.53125 37.203125 -20.9375 37.203125 -23.8125 C 37.203125 -26.457031 36.609375 -28.769531 35.421875 -30.75 C 34.242188 -32.726562 32.695312 -34.265625 30.78125 -35.359375 C 28.863281 -36.460938 26.785156 -37.015625 24.546875 -37.015625 L 14.875 -37.015625 L 14.875 10.796875 L 1.796875 10.796875 Z M 1.796875 -47.8125 "/></g></g></g><g fill="#96001f" fill-opacity="1"><g transform="translate(307.817748, 289.190739)"><g><path d="M 0.59375 -47.8125 L 48.484375 -47.8125 L 48.484375 -37.015625 L 31.140625 -37.015625 L 31.140625 0 L 17.9375 0 L 17.9375 -37.015625 L 0.59375 -37.015625 Z M 0.59375 -47.8125 "/></g></g></g><g fill="#96001f" fill-opacity="1"><g transform="translate(18.307099, 221.414414)"><g><path d="M 0.265625 -12.546875 L 9.625 -12.546875 L 9.625 -9.34375 C 9.414062 -9.539062 9.171875 -9.691406 8.890625 -9.796875 C 8.617188 -9.898438 8.347656 -9.972656 8.078125 -10.015625 C 7.816406 -10.054688 7.578125 -10.078125 7.359375 -10.078125 L 6.390625 -10.078125 L 6.390625 -1.609375 C 6.390625 -1.285156 6.425781 -0.96875 6.5 -0.65625 C 6.570312 -0.34375 6.6875 -0.125 6.84375 0 L 3 0 C 3.144531 -0.125 3.253906 -0.34375 3.328125 -0.65625 C 3.410156 -0.976562 3.453125 -1.300781 3.453125 -1.625 L 3.453125 -10.078125 L 2.515625 -10.078125 C 2.304688 -10.078125 2.066406 -10.054688 1.796875 -10.015625 C 1.523438 -9.972656 1.253906 -9.898438 0.984375 -9.796875 C 0.710938 -9.691406 0.472656 -9.539062 0.265625 -9.34375 Z M 0.265625 -12.546875 "/></g></g></g><g fill="#96001f" fill-opacity="1"><g transform="translate(28.31407, 221.414414)"><g><path d="M 0.71875 -10.921875 C 0.71875 -11.242188 0.675781 -11.5625 0.59375 -11.875 C 0.519531 -12.1875 0.410156 -12.410156 0.265625 -12.546875 L 5.6875 -12.546875 C 6.207031 -12.546875 6.722656 -12.457031 7.234375 -12.28125 C 7.753906 -12.113281 8.222656 -11.863281 8.640625 -11.53125 C 9.066406 -11.195312 9.40625 -10.78125 9.65625 -10.28125 C 9.914062 -9.78125 10.046875 -9.203125 10.046875 -8.546875 C 10.046875 -7.640625 9.800781 -6.882812 9.3125 -6.28125 C 8.820312 -5.6875 8.191406 -5.273438 7.421875 -5.046875 L 8.15625 -3.078125 C 8.519531 -2.117188 8.859375 -1.394531 9.171875 -0.90625 C 9.484375 -0.425781 9.765625 -0.125 10.015625 0 L 5.71875 0 C 5.8125 -0.113281 5.863281 -0.273438 5.875 -0.484375 C 5.894531 -0.691406 5.84375 -0.941406 5.71875 -1.234375 L 3.640625 -7 L 3.640625 -1.609375 C 3.640625 -1.285156 3.675781 -0.96875 3.75 -0.65625 C 3.832031 -0.34375 3.945312 -0.125 4.09375 0 L 0.265625 0 C 0.410156 -0.125 0.519531 -0.34375 0.59375 -0.65625 C 0.675781 -0.976562 0.71875 -1.300781 0.71875 -1.625 Z M 3.640625 -7 L 5.5 -7 C 5.875 -7 6.179688 -7.078125 6.421875 -7.234375 C 6.660156 -7.390625 6.84375 -7.585938 6.96875 -7.828125 C 7.09375 -8.066406 7.15625 -8.304688 7.15625 -8.546875 C 7.15625 -8.953125 7.015625 -9.304688 6.734375 -9.609375 C 6.460938 -9.921875 6.0625 -10.078125 5.53125 -10.078125 L 3.640625 -10.078125 Z M 3.640625 -7 "/></g></g></g><g fill="#96001f" fill-opacity="1"><g transform="translate(38.749909, 221.414414)"><g><path d="M 1.359375 0 C 1.148438 -0.613281 0.976562 -1.191406 0.84375 -1.734375 C 0.71875 -2.273438 0.617188 -2.832031 0.546875 -3.40625 C 0.484375 -3.976562 0.453125 -4.613281 0.453125 -5.3125 C 0.453125 -6.03125 0.539062 -6.742188 0.71875 -7.453125 C 0.90625 -8.171875 1.175781 -8.84375 1.53125 -9.46875 C 1.894531 -10.101562 2.335938 -10.664062 2.859375 -11.15625 C 3.390625 -11.644531 4 -12.03125 4.6875 -12.3125 C 5.382812 -12.59375 6.15625 -12.734375 7 -12.734375 C 7.40625 -12.734375 7.800781 -12.6875 8.1875 -12.59375 C 8.582031 -12.507812 8.929688 -12.378906 9.234375 -12.203125 C 9.535156 -12.035156 9.742188 -11.832031 9.859375 -11.59375 L 9.859375 -1.625 C 9.859375 -1.300781 9.894531 -0.976562 9.96875 -0.65625 C 10.050781 -0.34375 10.171875 -0.125 10.328125 0 L 6.484375 0 C 6.628906 -0.125 6.738281 -0.34375 6.8125 -0.65625 C 6.894531 -0.96875 6.9375 -1.285156 6.9375 -1.609375 L 6.9375 -3.75 L 3.453125 -3.75 C 3.546875 -3.007812 3.71875 -2.332031 3.96875 -1.71875 C 4.226562 -1.113281 4.5625 -0.539062 4.96875 0 Z M 3.46875 -6.21875 L 6.9375 -6.21875 L 6.953125 -10.0625 C 6.378906 -10.0625 5.890625 -9.941406 5.484375 -9.703125 C 5.078125 -9.472656 4.734375 -9.164062 4.453125 -8.78125 C 4.179688 -8.394531 3.96875 -7.976562 3.8125 -7.53125 C 3.65625 -7.082031 3.539062 -6.644531 3.46875 -6.21875 Z M 3.46875 -6.21875 "/></g></g></g><g fill="#96001f" fill-opacity="1"><g transform="translate(49.328708, 221.414414)"><g><path d="M 1.796875 -8.859375 C 1.628906 -9.359375 1.472656 -9.828125 1.328125 -10.265625 C 1.191406 -10.710938 1.03125 -11.125 0.84375 -11.5 C 0.65625 -11.875 0.414062 -12.222656 0.125 -12.546875 L 4.6875 -12.546875 C 4.53125 -12.410156 4.414062 -12.25 4.34375 -12.0625 C 4.269531 -11.882812 4.234375 -11.710938 4.234375 -11.546875 C 4.234375 -11.335938 4.28125 -11.03125 4.375 -10.625 C 4.476562 -10.21875 4.609375 -9.75 4.765625 -9.21875 C 4.921875 -8.6875 5.085938 -8.132812 5.265625 -7.5625 C 5.441406 -6.988281 5.617188 -6.429688 5.796875 -5.890625 C 5.972656 -5.359375 6.117188 -4.878906 6.234375 -4.453125 C 6.429688 -4.671875 6.617188 -4.957031 6.796875 -5.3125 C 6.972656 -5.675781 7.128906 -6.070312 7.265625 -6.5 C 7.398438 -6.9375 7.503906 -7.378906 7.578125 -7.828125 C 7.648438 -8.285156 7.6875 -8.707031 7.6875 -9.09375 C 7.6875 -9.707031 7.628906 -10.226562 7.515625 -10.65625 C 7.410156 -11.09375 7.285156 -11.445312 7.140625 -11.71875 C 6.992188 -12 6.863281 -12.207031 6.75 -12.34375 C 6.644531 -12.476562 6.59375 -12.546875 6.59375 -12.546875 L 9.53125 -12.546875 C 9.53125 -12.546875 9.582031 -12.5 9.6875 -12.40625 C 9.800781 -12.320312 9.929688 -12.171875 10.078125 -11.953125 C 10.222656 -11.734375 10.351562 -11.421875 10.46875 -11.015625 C 10.582031 -10.609375 10.640625 -10.097656 10.640625 -9.484375 C 10.640625 -8.640625 10.515625 -7.785156 10.265625 -6.921875 C 10.023438 -6.054688 9.71875 -5.207031 9.34375 -4.375 C 8.96875 -3.550781 8.566406 -2.765625 8.140625 -2.015625 C 7.710938 -1.273438 7.3125 -0.601562 6.9375 0 L 4.53125 0 C 4.320312 -0.695312 4.128906 -1.332031 3.953125 -1.90625 C 3.773438 -2.488281 3.609375 -3.046875 3.453125 -3.578125 C 3.296875 -4.109375 3.132812 -4.640625 2.96875 -5.171875 C 2.800781 -5.710938 2.617188 -6.28125 2.421875 -6.875 C 2.234375 -7.476562 2.023438 -8.140625 1.796875 -8.859375 Z M 1.796875 -8.859375 "/></g></g></g><g fill="#96001f" fill-opacity="1"><g transform="translate(60.219414, 221.414414)"><g><path d="M 6.671875 0.1875 C 5.722656 0.1875 4.867188 0.0195312 4.109375 -0.3125 C 3.347656 -0.644531 2.691406 -1.109375 2.140625 -1.703125 C 1.597656 -2.296875 1.179688 -2.984375 0.890625 -3.765625 C 0.597656 -4.546875 0.453125 -5.382812 0.453125 -6.28125 C 0.453125 -7.175781 0.597656 -8.007812 0.890625 -8.78125 C 1.179688 -9.5625 1.597656 -10.25 2.140625 -10.84375 C 2.691406 -11.4375 3.347656 -11.898438 4.109375 -12.234375 C 4.867188 -12.566406 5.722656 -12.734375 6.671875 -12.734375 C 7.597656 -12.734375 8.453125 -12.601562 9.234375 -12.34375 C 10.015625 -12.082031 10.65625 -11.675781 11.15625 -11.125 C 11.039062 -10.851562 10.929688 -10.570312 10.828125 -10.28125 C 10.734375 -10 10.644531 -9.738281 10.5625 -9.5 C 10.488281 -9.257812 10.425781 -9.0625 10.375 -8.90625 C 10.332031 -8.757812 10.3125 -8.6875 10.3125 -8.6875 C 10.3125 -8.6875 10.25 -8.765625 10.125 -8.921875 C 10.007812 -9.085938 9.820312 -9.269531 9.5625 -9.46875 C 9.3125 -9.675781 8.988281 -9.859375 8.59375 -10.015625 C 8.195312 -10.171875 7.71875 -10.25 7.15625 -10.25 C 6.488281 -10.25 5.867188 -10.101562 5.296875 -9.8125 C 4.722656 -9.519531 4.257812 -9.078125 3.90625 -8.484375 C 3.550781 -7.898438 3.375 -7.160156 3.375 -6.265625 C 3.375 -5.878906 3.410156 -5.523438 3.484375 -5.203125 C 3.554688 -4.878906 3.65625 -4.582031 3.78125 -4.3125 C 3.738281 -5.039062 3.851562 -5.695312 4.125 -6.28125 C 4.40625 -6.863281 4.804688 -7.328125 5.328125 -7.671875 C 5.859375 -8.023438 6.46875 -8.203125 7.15625 -8.203125 C 7.414062 -8.203125 7.675781 -8.171875 7.9375 -8.109375 C 8.207031 -8.046875 8.441406 -7.957031 8.640625 -7.84375 C 8.847656 -7.726562 8.988281 -7.601562 9.0625 -7.46875 L 9.0625 -4.609375 C 8.800781 -4.828125 8.4375 -5.023438 7.96875 -5.203125 C 7.5 -5.390625 7.007812 -5.484375 6.5 -5.484375 C 5.976562 -5.484375 5.507812 -5.414062 5.09375 -5.28125 C 4.675781 -5.144531 4.378906 -4.941406 4.203125 -4.671875 C 4.023438 -4.398438 4.03125 -4.050781 4.21875 -3.625 C 4.570312 -3.1875 5.003906 -2.851562 5.515625 -2.625 C 6.023438 -2.40625 6.570312 -2.296875 7.15625 -2.296875 C 7.71875 -2.296875 8.195312 -2.375 8.59375 -2.53125 C 8.988281 -2.695312 9.3125 -2.878906 9.5625 -3.078125 C 9.820312 -3.285156 10.007812 -3.46875 10.125 -3.625 C 10.25 -3.789062 10.3125 -3.875 10.3125 -3.875 C 10.3125 -3.875 10.332031 -3.796875 10.375 -3.640625 C 10.425781 -3.492188 10.488281 -3.296875 10.5625 -3.046875 C 10.644531 -2.804688 10.734375 -2.539062 10.828125 -2.25 C 10.929688 -1.96875 11.039062 -1.695312 11.15625 -1.4375 C 10.65625 -0.875 10.015625 -0.460938 9.234375 -0.203125 C 8.453125 0.0546875 7.597656 0.1875 6.671875 0.1875 Z M 6.671875 0.1875 "/></g></g></g><g fill="#96001f" fill-opacity="1"><g transform="translate(71.500001, 221.414414)"><g><path d="M 0.265625 0 C 0.410156 -0.125 0.519531 -0.34375 0.59375 -0.65625 C 0.675781 -0.976562 0.71875 -1.300781 0.71875 -1.625 L 0.71875 -10.921875 C 0.71875 -11.242188 0.675781 -11.5625 0.59375 -11.875 C 0.519531 -12.1875 0.410156 -12.410156 0.265625 -12.546875 L 4.09375 -12.546875 C 3.945312 -12.410156 3.832031 -12.1875 3.75 -11.875 C 3.675781 -11.570312 3.640625 -11.257812 3.640625 -10.9375 L 3.640625 -2.46875 L 7.03125 -2.46875 C 7.25 -2.46875 7.488281 -2.488281 7.75 -2.53125 C 8.019531 -2.570312 8.289062 -2.644531 8.5625 -2.75 C 8.84375 -2.851562 9.085938 -3.003906 9.296875 -3.203125 L 9.296875 0 Z M 0.265625 0 "/></g></g></g><g clip-path="url(#a510771457)"><g clip-path="url(#88a28b25fb)"><g clip-path="url(#44104086b5)"><g clip-path="url(#d57d388e3d)"><g clip-path="url(#e0cde5ec61)"><g clip-path="url(#a473281815)"><g clip-path="url(#7c38bba619)"><g clip-path="url(#563ff3f33c)"><path fill="#96001f" d="M 271.679688 221.019531 L 371.609375 189.296875 L 371.839844 190.011719 L 271.90625 221.734375 Z M 271.679688 221.019531 " fill-opacity="1" fill-rule="nonzero"/></g></g></g></g></g></g></g></g><g fill="#96001f" fill-opacity="1"><g transform="translate(271.450817, 220.305476)"><g><path d="M 3.09375 -10.046875 L 3.234375 -10.09375 C 3.273438 -10.09375 3.320312 -10.085938 3.375 -10.078125 C 3.425781 -10.078125 3.476562 -10.066406 3.53125 -10.046875 C 3.570312 -10.035156 3.613281 -10.019531 3.65625 -10 C 3.6875 -9.96875 3.726562 -9.929688 3.78125 -9.890625 C 3.800781 -9.847656 3.820312 -9.804688 3.84375 -9.765625 C 3.863281 -9.742188 3.878906 -9.71875 3.890625 -9.6875 L 3.90625 -9.640625 C 3.914062 -9.578125 3.914062 -9.523438 3.90625 -9.484375 C 3.90625 -9.429688 3.90625 -9.382812 3.90625 -9.34375 C 3.894531 -9.289062 3.875 -9.242188 3.84375 -9.203125 C 3.820312 -9.148438 3.785156 -9.109375 3.734375 -9.078125 C 3.703125 -9.046875 3.660156 -9.019531 3.609375 -9 C 3.609375 -8.976562 3.597656 -8.960938 3.578125 -8.953125 C 3.554688 -8.941406 3.53125 -8.929688 3.5 -8.921875 L 1.953125 -8.421875 L 6.015625 4.359375 C 6.023438 4.410156 6.035156 4.460938 6.046875 4.515625 C 6.054688 4.546875 6.054688 4.59375 6.046875 4.65625 C 6.046875 4.695312 6.035156 4.742188 6.015625 4.796875 C 5.992188 4.847656 5.96875 4.894531 5.9375 4.9375 C 5.914062 4.96875 5.882812 5.003906 5.84375 5.046875 C 5.800781 5.066406 5.757812 5.085938 5.71875 5.109375 C 5.6875 5.128906 5.660156 5.144531 5.640625 5.15625 L 5.578125 5.171875 C 5.535156 5.179688 5.488281 5.1875 5.4375 5.1875 C 5.382812 5.175781 5.335938 5.171875 5.296875 5.171875 C 5.242188 5.160156 5.191406 5.140625 5.140625 5.109375 C 5.097656 5.085938 5.0625 5.054688 5.03125 5.015625 C 5 4.972656 4.96875 4.9375 4.9375 4.90625 C 4.925781 4.882812 4.914062 4.863281 4.90625 4.84375 L 4.875 4.765625 L 0.8125 -8.0625 C 0.457031 -7.957031 -0.0664062 -7.796875 -0.765625 -7.578125 C -0.804688 -7.554688 -0.851562 -7.539062 -0.90625 -7.53125 C -0.945312 -7.519531 -1 -7.519531 -1.0625 -7.53125 C -1.101562 -7.519531 -1.144531 -7.519531 -1.1875 -7.53125 C -1.25 -7.550781 -1.300781 -7.570312 -1.34375 -7.59375 C -1.382812 -7.625 -1.421875 -7.65625 -1.453125 -7.6875 C -1.492188 -7.726562 -1.53125 -7.765625 -1.5625 -7.796875 C -1.570312 -7.835938 -1.585938 -7.882812 -1.609375 -7.9375 L -1.609375 -7.953125 C -1.628906 -8.003906 -1.640625 -8.046875 -1.640625 -8.078125 C -1.640625 -8.140625 -1.632812 -8.191406 -1.625 -8.234375 C -1.613281 -8.296875 -1.597656 -8.347656 -1.578125 -8.390625 C -1.546875 -8.421875 -1.515625 -8.457031 -1.484375 -8.5 C -1.453125 -8.539062 -1.414062 -8.570312 -1.375 -8.59375 C -1.351562 -8.625 -1.332031 -8.640625 -1.3125 -8.640625 C -1.289062 -8.648438 -1.269531 -8.664062 -1.25 -8.6875 L -1.25 -8.671875 L -1.328125 -8.640625 L -1.234375 -8.671875 C -1.234375 -8.679688 -1.21875 -8.691406 -1.1875 -8.703125 C -0.632812 -8.867188 -0.164062 -9.007812 0.21875 -9.125 L 1.4375 -9.515625 L 2.203125 -9.765625 Z M 3.09375 -10.046875 "/></g></g></g><g fill="#96001f" fill-opacity="1"><g transform="translate(278.691316, 218.007012)"><g><path d="M 0.828125 -9.390625 L 1.34375 -9.5625 C 1.476562 -9.601562 1.609375 -9.597656 1.734375 -9.546875 C 1.867188 -9.515625 1.972656 -9.441406 2.046875 -9.328125 C 2.867188 -8.035156 4.109375 -6.09375 5.765625 -3.5 C 6.691406 -2.070312 8.078125 0.0703125 9.921875 2.9375 C 9.960938 2.976562 9.992188 3.023438 10.015625 3.078125 C 10.046875 3.179688 10.046875 3.285156 10.015625 3.390625 C 10.003906 3.566406 9.921875 3.695312 9.765625 3.78125 C 9.734375 3.8125 9.695312 3.832031 9.65625 3.84375 C 9.539062 3.882812 9.429688 3.894531 9.328125 3.875 C 9.148438 3.8125 9.019531 3.710938 8.9375 3.578125 C 8 2.140625 6.613281 -0.00390625 4.78125 -2.859375 C 4.6875 -2.984375 4.554688 -3.171875 4.390625 -3.421875 C 3.828125 -3.253906 2.976562 -2.992188 1.84375 -2.640625 C 1.851562 -2.316406 1.875 -1.816406 1.90625 -1.140625 C 1.90625 -0.992188 1.847656 -0.851562 1.734375 -0.71875 C 1.609375 -0.59375 1.472656 -0.53125 1.328125 -0.53125 C 1.171875 -0.519531 1.023438 -0.578125 0.890625 -0.703125 C 0.796875 -0.773438 0.738281 -0.859375 0.71875 -0.953125 C 0.695312 -1.003906 0.691406 -1.050781 0.703125 -1.09375 L 0.6875 -1.453125 C 0.675781 -1.691406 0.660156 -1.972656 0.640625 -2.296875 C 0.640625 -2.671875 0.628906 -3.035156 0.609375 -3.390625 L 0.59375 -3.90625 C 0.550781 -5 0.492188 -6.632812 0.421875 -8.8125 C 0.398438 -8.9375 0.425781 -9.046875 0.5 -9.140625 C 0.5625 -9.265625 0.648438 -9.34375 0.765625 -9.375 L 0.78125 -9.390625 Z M 1.796875 -3.875 L 3.71875 -4.484375 C 3.257812 -5.210938 2.566406 -6.289062 1.640625 -7.71875 C 1.671875 -6.863281 1.722656 -5.582031 1.796875 -3.875 Z M 1.796875 -3.875 "/></g></g></g><g fill="#96001f" fill-opacity="1"><g transform="translate(286.579645, 215.502898)"><g><path d="M 6.21875 -16.21875 C 6.28125 -16.144531 6.320312 -16.066406 6.34375 -15.984375 L 6.375 -15.90625 C 6.382812 -15.789062 6.375 -15.675781 6.34375 -15.5625 C 5.6875 -13.90625 4.703125 -11.425781 3.390625 -8.125 C 3.179688 -7.613281 2.867188 -6.84375 2.453125 -5.8125 C 3.035156 -5.28125 3.914062 -4.472656 5.09375 -3.390625 C 5.238281 -3.253906 5.460938 -3.050781 5.765625 -2.78125 C 5.878906 -2.675781 5.941406 -2.539062 5.953125 -2.375 C 5.953125 -2.1875 5.90625 -2.039062 5.8125 -1.9375 C 5.707031 -1.820312 5.5625 -1.757812 5.375 -1.75 C 5.21875 -1.75 5.078125 -1.800781 4.953125 -1.90625 C 4.804688 -2.03125 4.585938 -2.234375 4.296875 -2.515625 C 3.773438 -2.984375 3 -3.691406 1.96875 -4.640625 C 1.863281 -4.359375 1.695312 -3.941406 1.46875 -3.390625 L 4.140625 5.015625 C 4.179688 5.160156 4.164062 5.3125 4.09375 5.46875 C 4.019531 5.625 3.910156 5.726562 3.765625 5.78125 C 3.609375 5.820312 3.453125 5.804688 3.296875 5.734375 C 3.140625 5.640625 3.039062 5.519531 3 5.375 L 0.734375 -1.75 L 0.625 -2.09375 L 0.375 -2.859375 L 0.109375 -3.71875 L 0.0625 -3.859375 L -0.078125 -4.34375 L -1.265625 -8.046875 C -1.304688 -8.179688 -1.289062 -8.320312 -1.21875 -8.46875 C -1.164062 -8.613281 -1.070312 -8.71875 -0.9375 -8.78125 C -0.78125 -8.84375 -0.613281 -8.835938 -0.4375 -8.765625 C -0.269531 -8.679688 -0.164062 -8.5625 -0.125 -8.40625 L 0.90625 -5.1875 C 1.195312 -5.9375 1.65625 -7.066406 2.28125 -8.578125 C 2.9375 -10.222656 3.921875 -12.695312 5.234375 -16 C 5.265625 -16.09375 5.3125 -16.164062 5.375 -16.21875 C 5.445312 -16.289062 5.519531 -16.335938 5.59375 -16.359375 L 5.609375 -16.359375 C 5.710938 -16.390625 5.820312 -16.394531 5.9375 -16.375 C 6.050781 -16.34375 6.144531 -16.289062 6.21875 -16.21875 Z M 6.21875 -16.21875 "/></g></g></g><g fill="#96001f" fill-opacity="1"><g transform="translate(294.021195, 213.140611)"><g><path d="M -0.875 -8.796875 L 5.5625 -10.84375 C 5.71875 -10.894531 5.875 -10.882812 6.03125 -10.8125 C 6.1875 -10.71875 6.285156 -10.597656 6.328125 -10.453125 C 6.378906 -10.304688 6.363281 -10.15625 6.28125 -10 C 6.207031 -9.84375 6.09375 -9.742188 5.9375 -9.703125 L 0.0625 -7.84375 L 0.796875 -5.484375 L 2.84375 -6.140625 C 3 -6.179688 3.15625 -6.171875 3.3125 -6.109375 C 3.457031 -6.015625 3.554688 -5.894531 3.609375 -5.75 C 3.660156 -5.601562 3.644531 -5.453125 3.5625 -5.296875 C 3.488281 -5.140625 3.375 -5.039062 3.21875 -5 L 1.171875 -4.34375 L 1.9375 -1.890625 L 4.703125 -2.765625 C 4.847656 -2.816406 5.003906 -2.800781 5.171875 -2.71875 C 5.316406 -2.644531 5.414062 -2.53125 5.46875 -2.375 C 5.519531 -2.226562 5.503906 -2.078125 5.421875 -1.921875 C 5.335938 -1.785156 5.226562 -1.6875 5.09375 -1.625 L 5.078125 -1.625 L 1.75 -0.5625 C 1.59375 -0.519531 1.441406 -0.539062 1.296875 -0.625 C 1.140625 -0.695312 1.035156 -0.804688 0.984375 -0.953125 L -0.140625 -4.515625 L -0.515625 -5.671875 L -1.265625 -8.046875 C -1.304688 -8.191406 -1.296875 -8.335938 -1.234375 -8.484375 C -1.171875 -8.617188 -1.070312 -8.71875 -0.9375 -8.78125 L -0.890625 -8.796875 Z M -0.875 -8.796875 "/></g></g></g><g fill="#96001f" fill-opacity="1"><g transform="translate(307.106008, 208.986896)"><g><path d="M 5.484375 -15.4375 C 5.535156 -15.425781 5.585938 -15.410156 5.640625 -15.390625 C 5.691406 -15.367188 5.738281 -15.347656 5.78125 -15.328125 C 5.8125 -15.304688 5.84375 -15.273438 5.875 -15.234375 C 5.914062 -15.191406 5.941406 -15.144531 5.953125 -15.09375 C 5.972656 -15.070312 5.988281 -15.050781 6 -15.03125 L 6.015625 -14.984375 L 6.046875 -14.828125 C 6.035156 -14.796875 6.023438 -14.769531 6.015625 -14.75 C 6.023438 -14.726562 6.019531 -14.703125 6 -14.671875 C 5.351562 -11.984375 4.929688 -10.242188 4.734375 -9.453125 C 4.546875 -8.640625 4.445312 -8.234375 4.4375 -8.234375 C 4.238281 -7.546875 3.929688 -6.503906 3.515625 -5.109375 C 3.535156 -5.066406 3.546875 -5.035156 3.546875 -5.015625 C 3.554688 -5.003906 3.566406 -4.988281 3.578125 -4.96875 C 3.597656 -4.96875 3.597656 -4.976562 3.578125 -5 C 3.566406 -5.019531 3.5625 -5.046875 3.5625 -5.078125 C 3.570312 -5.015625 3.570312 -4.976562 3.5625 -4.96875 C 3.570312 -4.957031 3.578125 -4.9375 3.578125 -4.90625 L 6.53125 4.390625 C 6.550781 4.429688 6.5625 4.476562 6.5625 4.53125 C 6.570312 4.570312 6.578125 4.625 6.578125 4.6875 C 6.578125 4.726562 6.566406 4.769531 6.546875 4.8125 C 6.535156 4.863281 6.507812 4.914062 6.46875 4.96875 C 6.445312 5 6.414062 5.035156 6.375 5.078125 C 6.34375 5.097656 6.304688 5.125 6.265625 5.15625 C 6.222656 5.175781 6.1875 5.191406 6.15625 5.203125 L 6.109375 5.21875 C 6.054688 5.21875 6.007812 5.21875 5.96875 5.21875 C 5.914062 5.21875 5.863281 5.210938 5.8125 5.203125 C 5.769531 5.179688 5.722656 5.15625 5.671875 5.125 C 5.640625 5.101562 5.609375 5.082031 5.578125 5.0625 L 5.484375 4.9375 C 5.453125 4.90625 5.4375 4.878906 5.4375 4.859375 L 5.40625 4.78125 L 2.4375 -4.578125 C 1.625 -5.253906 0.40625 -6.28125 -1.21875 -7.65625 C -1.25 -7.675781 -1.285156 -7.710938 -1.328125 -7.765625 C -1.359375 -7.785156 -1.390625 -7.816406 -1.421875 -7.859375 C -1.441406 -7.910156 -1.457031 -7.960938 -1.46875 -8.015625 C -1.488281 -8.066406 -1.503906 -8.113281 -1.515625 -8.15625 C -1.515625 -8.195312 -1.507812 -8.25 -1.5 -8.3125 C -1.488281 -8.34375 -1.472656 -8.382812 -1.453125 -8.4375 L -1.375 -8.5625 C -1.34375 -8.59375 -1.3125 -8.628906 -1.28125 -8.671875 C -1.257812 -8.679688 -1.234375 -8.691406 -1.203125 -8.703125 C -1.179688 -8.710938 -1.160156 -8.722656 -1.140625 -8.734375 C -1.128906 -8.753906 -1.140625 -8.753906 -1.171875 -8.734375 C -1.179688 -8.710938 -1.195312 -8.695312 -1.21875 -8.6875 C -1.1875 -8.71875 -1.140625 -8.738281 -1.078125 -8.75 C -1.035156 -8.769531 -0.988281 -8.78125 -0.9375 -8.78125 C -0.882812 -8.78125 -0.832031 -8.773438 -0.78125 -8.765625 C -0.75 -8.753906 -0.707031 -8.738281 -0.65625 -8.71875 C -0.625 -8.71875 -0.597656 -8.707031 -0.578125 -8.6875 C -0.554688 -8.675781 -0.535156 -8.660156 -0.515625 -8.640625 C 0.171875 -8.046875 1.210938 -7.15625 2.609375 -5.96875 C 2.753906 -6.539062 2.976562 -7.394531 3.28125 -8.53125 L 3.265625 -8.546875 C 3.566406 -9.640625 3.847656 -10.726562 4.109375 -11.8125 C 4.367188 -12.914062 4.628906 -14.007812 4.890625 -15.09375 C 4.921875 -15.132812 4.957031 -15.171875 5 -15.203125 C 5.03125 -15.242188 5.066406 -15.285156 5.109375 -15.328125 C 5.117188 -15.347656 5.132812 -15.359375 5.15625 -15.359375 C 5.175781 -15.367188 5.195312 -15.382812 5.21875 -15.40625 C 5.25 -15.414062 5.296875 -15.421875 5.359375 -15.421875 C 5.398438 -15.421875 5.441406 -15.425781 5.484375 -15.4375 Z M 5.484375 -15.4375 "/></g></g></g><g fill="#96001f" fill-opacity="1"><g transform="translate(315.921402, 206.188488)"><g><path d="M 2.78125 -9.359375 C 3.019531 -9.265625 3.226562 -9.140625 3.40625 -8.984375 C 3.59375 -8.847656 3.722656 -8.660156 3.796875 -8.421875 L 5.296875 -3.6875 C 5.378906 -3.4375 5.394531 -3.171875 5.34375 -2.890625 C 5.300781 -2.617188 5.195312 -2.363281 5.03125 -2.125 C 4.875 -1.90625 4.675781 -1.710938 4.4375 -1.546875 C 4.175781 -1.367188 3.890625 -1.234375 3.578125 -1.140625 C 3.328125 -1.054688 3.054688 -1 2.765625 -0.96875 C 2.484375 -0.9375 2.207031 -0.960938 1.9375 -1.046875 C 1.664062 -1.097656 1.398438 -1.226562 1.140625 -1.4375 C 0.910156 -1.632812 0.742188 -1.890625 0.640625 -2.203125 L -0.859375 -6.9375 C -0.941406 -7.195312 -0.945312 -7.457031 -0.875 -7.71875 C -0.800781 -7.976562 -0.6875 -8.210938 -0.53125 -8.421875 C -0.363281 -8.628906 -0.15625 -8.804688 0.09375 -8.953125 C 0.332031 -9.109375 0.613281 -9.238281 0.9375 -9.34375 C 1.28125 -9.457031 1.613281 -9.507812 1.9375 -9.5 C 2.25 -9.5 2.53125 -9.453125 2.78125 -9.359375 Z M 0.40625 -7.65625 C 0.332031 -7.582031 0.285156 -7.515625 0.265625 -7.453125 C 0.265625 -7.390625 0.269531 -7.335938 0.28125 -7.296875 L 1.78125 -2.5625 C 1.820312 -2.445312 1.875 -2.363281 1.9375 -2.3125 C 1.988281 -2.269531 2.082031 -2.234375 2.21875 -2.203125 C 2.351562 -2.160156 2.507812 -2.144531 2.6875 -2.15625 C 2.863281 -2.175781 3.039062 -2.21875 3.21875 -2.28125 C 3.445312 -2.351562 3.625 -2.4375 3.75 -2.53125 C 3.882812 -2.625 3.988281 -2.71875 4.0625 -2.8125 C 4.125 -2.90625 4.160156 -2.992188 4.171875 -3.078125 C 4.191406 -3.160156 4.1875 -3.238281 4.15625 -3.3125 L 2.65625 -8.046875 C 2.664062 -8.003906 2.644531 -8.007812 2.59375 -8.0625 C 2.550781 -8.132812 2.472656 -8.195312 2.359375 -8.25 C 2.234375 -8.28125 2.085938 -8.300781 1.921875 -8.3125 C 1.734375 -8.320312 1.523438 -8.289062 1.296875 -8.21875 C 1.066406 -8.144531 0.878906 -8.054688 0.734375 -7.953125 C 0.578125 -7.847656 0.46875 -7.75 0.40625 -7.65625 Z M 0.40625 -7.65625 "/></g></g></g><g fill="#96001f" fill-opacity="1"><g transform="translate(323.128392, 203.900662)"><g><path d="M 1.21875 -15.921875 C 1.28125 -15.910156 1.335938 -15.898438 1.390625 -15.890625 C 1.429688 -15.878906 1.476562 -15.859375 1.53125 -15.828125 C 1.570312 -15.804688 1.601562 -15.773438 1.625 -15.734375 C 1.664062 -15.703125 1.703125 -15.664062 1.734375 -15.625 L 1.78125 -15.5625 L 1.8125 -15.484375 L 5.40625 -4.15625 L 5.40625 -4.140625 L 5.4375 -4.0625 C 5.539062 -3.738281 5.554688 -3.421875 5.484375 -3.109375 C 5.421875 -2.773438 5.304688 -2.476562 5.140625 -2.21875 C 4.960938 -1.957031 4.742188 -1.742188 4.484375 -1.578125 C 4.222656 -1.390625 3.945312 -1.25 3.65625 -1.15625 C 3.382812 -1.070312 3.097656 -1.019531 2.796875 -1 C 2.484375 -0.96875 2.179688 -1.003906 1.890625 -1.109375 C 1.566406 -1.203125 1.273438 -1.375 1.015625 -1.625 C 0.742188 -1.90625 0.546875 -2.242188 0.421875 -2.640625 L -1.28125 -7.984375 C -1.289062 -8.023438 -1.304688 -8.070312 -1.328125 -8.125 C -1.328125 -8.175781 -1.320312 -8.222656 -1.3125 -8.265625 C -1.3125 -8.316406 -1.300781 -8.375 -1.28125 -8.4375 C -1.257812 -8.476562 -1.234375 -8.515625 -1.203125 -8.546875 C -1.179688 -8.585938 -1.148438 -8.625 -1.109375 -8.65625 C -1.078125 -8.6875 -1.035156 -8.71875 -0.984375 -8.75 C -0.953125 -8.769531 -0.90625 -8.785156 -0.84375 -8.796875 C -0.800781 -8.804688 -0.753906 -8.8125 -0.703125 -8.8125 C -0.648438 -8.8125 -0.597656 -8.800781 -0.546875 -8.78125 C -0.515625 -8.769531 -0.476562 -8.753906 -0.4375 -8.734375 C -0.382812 -8.703125 -0.335938 -8.671875 -0.296875 -8.640625 C -0.265625 -8.597656 -0.238281 -8.554688 -0.21875 -8.515625 C -0.195312 -8.492188 -0.179688 -8.472656 -0.171875 -8.453125 L -0.15625 -8.390625 L 1.5625 -3 C 1.632812 -2.75 1.726562 -2.578125 1.84375 -2.484375 C 1.957031 -2.367188 2.085938 -2.289062 2.234375 -2.25 C 2.367188 -2.207031 2.53125 -2.1875 2.71875 -2.1875 C 2.914062 -2.207031 3.109375 -2.242188 3.296875 -2.296875 C 3.472656 -2.359375 3.640625 -2.441406 3.796875 -2.546875 C 3.953125 -2.648438 4.070312 -2.769531 4.15625 -2.90625 C 4.25 -3.03125 4.304688 -3.160156 4.328125 -3.296875 C 4.335938 -3.421875 4.332031 -3.535156 4.3125 -3.640625 C 4.289062 -3.679688 4.273438 -3.707031 4.265625 -3.71875 L 4.25 -3.78125 C 3.457031 -6.28125 2.273438 -10.03125 0.703125 -15.03125 C 0.671875 -15.070312 0.648438 -15.117188 0.640625 -15.171875 C 0.617188 -15.222656 0.613281 -15.273438 0.625 -15.328125 C 0.625 -15.378906 0.625 -15.421875 0.625 -15.453125 C 0.644531 -15.503906 0.664062 -15.550781 0.6875 -15.59375 C 0.71875 -15.632812 0.75 -15.679688 0.78125 -15.734375 C 0.820312 -15.765625 0.859375 -15.789062 0.890625 -15.8125 C 0.910156 -15.84375 0.945312 -15.863281 1 -15.875 C 1.019531 -15.882812 1.035156 -15.890625 1.046875 -15.890625 C 1.054688 -15.898438 1.054688 -15.898438 1.046875 -15.890625 C 1.035156 -15.890625 1.035156 -15.890625 1.046875 -15.890625 C 1.054688 -15.898438 1.070312 -15.90625 1.09375 -15.90625 C 1.144531 -15.914062 1.1875 -15.921875 1.21875 -15.921875 Z M 1.21875 -15.921875 "/></g></g></g><g fill="#96001f" fill-opacity="1"><g transform="translate(330.569944, 201.538375)"><g><path d="M -0.890625 -8.796875 L 1.453125 -9.546875 C 1.515625 -9.546875 1.550781 -9.550781 1.5625 -9.5625 C 1.570312 -9.5625 1.59375 -9.5625 1.625 -9.5625 C 2.226562 -9.613281 2.734375 -9.5 3.140625 -9.21875 C 3.523438 -8.9375 3.78125 -8.644531 3.90625 -8.34375 C 3.9375 -8.289062 3.957031 -8.265625 3.96875 -8.265625 L 3.984375 -8.21875 C 4.078125 -7.9375 4.210938 -7.523438 4.390625 -6.984375 C 4.398438 -6.929688 4.40625 -6.898438 4.40625 -6.890625 L 4.421875 -6.84375 C 4.484375 -6.601562 4.503906 -6.363281 4.484375 -6.125 C 4.460938 -5.875 4.410156 -5.628906 4.328125 -5.390625 C 4.265625 -5.273438 4.1875 -5.148438 4.09375 -5.015625 C 4.007812 -4.910156 3.914062 -4.804688 3.8125 -4.703125 C 3.988281 -4.484375 4.257812 -4.1875 4.625 -3.8125 C 4.96875 -3.425781 5.160156 -3.21875 5.203125 -3.1875 L 10.546875 2.765625 C 10.585938 2.796875 10.625 2.832031 10.65625 2.875 C 10.6875 2.914062 10.707031 2.960938 10.71875 3.015625 L 10.734375 3.03125 C 10.742188 3.0625 10.75 3.101562 10.75 3.15625 C 10.757812 3.195312 10.757812 3.25 10.75 3.3125 C 10.738281 3.34375 10.722656 3.378906 10.703125 3.421875 C 10.679688 3.484375 10.65625 3.535156 10.625 3.578125 C 10.59375 3.609375 10.554688 3.640625 10.515625 3.671875 C 10.472656 3.710938 10.429688 3.742188 10.390625 3.765625 L 10.328125 3.78125 C 10.296875 3.789062 10.269531 3.796875 10.25 3.796875 C 10.195312 3.804688 10.144531 3.8125 10.09375 3.8125 C 10.050781 3.800781 10.007812 3.78125 9.96875 3.75 L 9.8125 3.71875 C 9.789062 3.695312 9.769531 3.679688 9.75 3.671875 C 9.738281 3.640625 9.722656 3.617188 9.703125 3.609375 C 8.515625 2.273438 6.722656 0.285156 4.328125 -2.359375 L 4.3125 -2.375 C 3.945312 -2.78125 3.398438 -3.378906 2.671875 -4.171875 L 1.359375 -3.75 C 1.523438 -3.21875 1.769531 -2.421875 2.09375 -1.359375 C 2.125 -1.316406 2.140625 -1.269531 2.140625 -1.21875 C 2.148438 -1.164062 2.15625 -1.113281 2.15625 -1.0625 C 2.132812 -1.019531 2.113281 -0.96875 2.09375 -0.90625 C 2.082031 -0.851562 2.066406 -0.8125 2.046875 -0.78125 C 2.015625 -0.738281 1.976562 -0.707031 1.9375 -0.6875 C 1.894531 -0.644531 1.851562 -0.613281 1.8125 -0.59375 C 1.769531 -0.570312 1.726562 -0.554688 1.6875 -0.546875 C 1.632812 -0.535156 1.582031 -0.523438 1.53125 -0.515625 C 1.476562 -0.523438 1.429688 -0.539062 1.390625 -0.5625 C 1.335938 -0.582031 1.289062 -0.597656 1.25 -0.609375 C 1.207031 -0.640625 1.171875 -0.671875 1.140625 -0.703125 C 1.085938 -0.742188 1.050781 -0.785156 1.03125 -0.828125 C 1.007812 -0.847656 0.992188 -0.867188 0.984375 -0.890625 L 0.96875 -0.953125 C 0.457031 -2.554688 -0.300781 -4.960938 -1.3125 -8.171875 L -1.296875 -8.328125 C -1.285156 -8.367188 -1.273438 -8.414062 -1.265625 -8.46875 C -1.242188 -8.507812 -1.207031 -8.550781 -1.15625 -8.59375 C -1.144531 -8.625 -1.117188 -8.65625 -1.078125 -8.6875 C -1.054688 -8.707031 -1.019531 -8.726562 -0.96875 -8.75 C -0.945312 -8.769531 -0.9375 -8.78125 -0.9375 -8.78125 L -0.953125 -8.78125 C -0.960938 -8.78125 -0.960938 -8.78125 -0.953125 -8.78125 C -0.941406 -8.78125 -0.9375 -8.78125 -0.9375 -8.78125 Z M 0.984375 -4.90625 L 2.765625 -5.46875 C 2.878906 -5.507812 2.96875 -5.5625 3.03125 -5.625 C 3.101562 -5.6875 3.160156 -5.765625 3.203125 -5.859375 C 3.253906 -5.972656 3.285156 -6.082031 3.296875 -6.1875 C 3.304688 -6.332031 3.300781 -6.445312 3.28125 -6.53125 L 2.875 -7.796875 C 2.800781 -7.960938 2.6875 -8.101562 2.53125 -8.21875 C 2.394531 -8.34375 2.132812 -8.394531 1.75 -8.375 L 0.0625 -7.84375 L 0.53125 -6.359375 Z M 0.984375 -4.90625 "/></g></g></g><g fill="#96001f" fill-opacity="1"><g transform="translate(337.776937, 199.250547)"><g/></g></g><g fill="#96001f" fill-opacity="1"><g transform="translate(344.112711, 197.239284)"><g><path d="M 3.09375 -10.046875 L 3.234375 -10.09375 C 3.273438 -10.09375 3.320312 -10.085938 3.375 -10.078125 C 3.425781 -10.078125 3.476562 -10.066406 3.53125 -10.046875 C 3.570312 -10.035156 3.613281 -10.019531 3.65625 -10 C 3.6875 -9.96875 3.726562 -9.929688 3.78125 -9.890625 C 3.800781 -9.847656 3.820312 -9.804688 3.84375 -9.765625 C 3.863281 -9.742188 3.878906 -9.71875 3.890625 -9.6875 L 3.90625 -9.640625 C 3.914062 -9.578125 3.914062 -9.523438 3.90625 -9.484375 C 3.90625 -9.429688 3.90625 -9.382812 3.90625 -9.34375 C 3.894531 -9.289062 3.875 -9.242188 3.84375 -9.203125 C 3.820312 -9.148438 3.785156 -9.109375 3.734375 -9.078125 C 3.703125 -9.046875 3.660156 -9.019531 3.609375 -9 C 3.609375 -8.976562 3.597656 -8.960938 3.578125 -8.953125 C 3.554688 -8.941406 3.53125 -8.929688 3.5 -8.921875 L 1.953125 -8.421875 L 6.015625 4.359375 C 6.023438 4.410156 6.035156 4.460938 6.046875 4.515625 C 6.054688 4.546875 6.054688 4.59375 6.046875 4.65625 C 6.046875 4.695312 6.035156 4.742188 6.015625 4.796875 C 5.992188 4.847656 5.96875 4.894531 5.9375 4.9375 C 5.914062 4.96875 5.882812 5.003906 5.84375 5.046875 C 5.800781 5.066406 5.757812 5.085938 5.71875 5.109375 C 5.6875 5.128906 5.660156 5.144531 5.640625 5.15625 L 5.578125 5.171875 C 5.535156 5.179688 5.488281 5.1875 5.4375 5.1875 C 5.382812 5.175781 5.335938 5.171875 5.296875 5.171875 C 5.242188 5.160156 5.191406 5.140625 5.140625 5.109375 C 5.097656 5.085938 5.0625 5.054688 5.03125 5.015625 C 5 4.972656 4.96875 4.9375 4.9375 4.90625 C 4.925781 4.882812 4.914062 4.863281 4.90625 4.84375 L 4.875 4.765625 L 0.8125 -8.0625 C 0.457031 -7.957031 -0.0664062 -7.796875 -0.765625 -7.578125 C -0.804688 -7.554688 -0.851562 -7.539062 -0.90625 -7.53125 C -0.945312 -7.519531 -1 -7.519531 -1.0625 -7.53125 C -1.101562 -7.519531 -1.144531 -7.519531 -1.1875 -7.53125 C -1.25 -7.550781 -1.300781 -7.570312 -1.34375 -7.59375 C -1.382812 -7.625 -1.421875 -7.65625 -1.453125 -7.6875 C -1.492188 -7.726562 -1.53125 -7.765625 -1.5625 -7.796875 C -1.570312 -7.835938 -1.585938 -7.882812 -1.609375 -7.9375 L -1.609375 -7.953125 C -1.628906 -8.003906 -1.640625 -8.046875 -1.640625 -8.078125 C -1.640625 -8.140625 -1.632812 -8.191406 -1.625 -8.234375 C -1.613281 -8.296875 -1.597656 -8.347656 -1.578125 -8.390625 C -1.546875 -8.421875 -1.515625 -8.457031 -1.484375 -8.5 C -1.453125 -8.539062 -1.414062 -8.570312 -1.375 -8.59375 C -1.351562 -8.625 -1.332031 -8.640625 -1.3125 -8.640625 C -1.289062 -8.648438 -1.269531 -8.664062 -1.25 -8.6875 L -1.25 -8.671875 L -1.328125 -8.640625 L -1.234375 -8.671875 C -1.234375 -8.679688 -1.21875 -8.691406 -1.1875 -8.703125 C -0.632812 -8.867188 -0.164062 -9.007812 0.21875 -9.125 L 1.4375 -9.515625 L 2.203125 -9.765625 Z M 3.09375 -10.046875 "/></g></g></g><g fill="#96001f" fill-opacity="1"><g transform="translate(351.353212, 194.940819)"><g><path d="M -0.703125 -8.828125 C -0.648438 -8.828125 -0.597656 -8.816406 -0.546875 -8.796875 C -0.503906 -8.785156 -0.460938 -8.773438 -0.421875 -8.765625 C -0.378906 -8.722656 -0.335938 -8.679688 -0.296875 -8.640625 C -0.265625 -8.609375 -0.234375 -8.566406 -0.203125 -8.515625 C -0.179688 -8.515625 -0.164062 -8.503906 -0.15625 -8.484375 L -0.140625 -8.40625 L 2.09375 -1.375 C 2.113281 -1.320312 2.125 -1.265625 2.125 -1.203125 C 2.132812 -1.160156 2.140625 -1.117188 2.140625 -1.078125 C 2.128906 -1.023438 2.113281 -0.972656 2.09375 -0.921875 C 2.082031 -0.859375 2.054688 -0.816406 2.015625 -0.796875 C 2.003906 -0.753906 1.976562 -0.71875 1.9375 -0.6875 C 1.894531 -0.644531 1.851562 -0.613281 1.8125 -0.59375 L 1.734375 -0.5625 L 1.6875 -0.546875 C 1.625 -0.523438 1.566406 -0.515625 1.515625 -0.515625 C 1.453125 -0.535156 1.410156 -0.550781 1.390625 -0.5625 C 1.328125 -0.570312 1.273438 -0.582031 1.234375 -0.59375 C 1.191406 -0.625 1.15625 -0.660156 1.125 -0.703125 C 1.082031 -0.742188 1.046875 -0.785156 1.015625 -0.828125 C 0.992188 -0.835938 0.976562 -0.851562 0.96875 -0.875 L 0.953125 -0.9375 C 0.441406 -2.550781 -0.316406 -4.960938 -1.328125 -8.171875 L -1.3125 -8.328125 C -1.300781 -8.367188 -1.289062 -8.414062 -1.28125 -8.46875 C -1.257812 -8.507812 -1.222656 -8.546875 -1.171875 -8.578125 C -1.148438 -8.628906 -1.125 -8.671875 -1.09375 -8.703125 L -1.03125 -8.75 L -0.96875 -8.78125 C -0.945312 -8.78125 -0.929688 -8.78125 -0.921875 -8.78125 C -0.898438 -8.789062 -0.878906 -8.800781 -0.859375 -8.8125 C -0.796875 -8.832031 -0.742188 -8.835938 -0.703125 -8.828125 Z M -0.703125 -8.828125 "/></g></g></g><g fill="#96001f" fill-opacity="1"><g transform="translate(354.907788, 193.812435)"><g><path d="M -0.90625 -8.8125 L -0.265625 -9.015625 C -0.210938 -9.023438 -0.164062 -9.035156 -0.125 -9.046875 C -0.0625 -9.035156 -0.00390625 -9.03125 0.046875 -9.03125 C 0.0859375 -9.019531 0.125 -9.003906 0.15625 -8.984375 C 0.21875 -8.953125 0.269531 -8.921875 0.3125 -8.890625 C 0.320312 -8.878906 0.335938 -8.863281 0.359375 -8.84375 C 0.378906 -8.820312 0.394531 -8.796875 0.40625 -8.765625 C 1.300781 -7.441406 2.644531 -5.441406 4.4375 -2.765625 C 4.40625 -4.367188 4.351562 -6.789062 4.28125 -10.03125 C 4.300781 -10.082031 4.3125 -10.128906 4.3125 -10.171875 C 4.3125 -10.234375 4.328125 -10.28125 4.359375 -10.3125 C 4.390625 -10.351562 4.421875 -10.390625 4.453125 -10.421875 C 4.492188 -10.460938 4.523438 -10.5 4.546875 -10.53125 L 4.703125 -10.59375 C 4.804688 -10.625 4.96875 -10.671875 5.1875 -10.734375 C 5.238281 -10.753906 5.285156 -10.769531 5.328125 -10.78125 C 5.378906 -10.789062 5.4375 -10.800781 5.5 -10.8125 C 5.53125 -10.800781 5.570312 -10.789062 5.625 -10.78125 C 5.6875 -10.769531 5.738281 -10.753906 5.78125 -10.734375 C 5.820312 -10.703125 5.859375 -10.671875 5.890625 -10.640625 C 5.921875 -10.597656 5.953125 -10.554688 5.984375 -10.515625 L 6.046875 -10.390625 L 10.28125 2.96875 C 10.289062 3.019531 10.300781 3.070312 10.3125 3.125 C 10.332031 3.164062 10.335938 3.207031 10.328125 3.25 C 10.328125 3.3125 10.316406 3.363281 10.296875 3.40625 C 10.273438 3.457031 10.25 3.503906 10.21875 3.546875 C 10.1875 3.578125 10.15625 3.613281 10.125 3.65625 C 10.082031 3.6875 10.046875 3.710938 10.015625 3.734375 C 9.984375 3.742188 9.953125 3.753906 9.921875 3.765625 L 9.859375 3.78125 C 9.816406 3.789062 9.769531 3.796875 9.71875 3.796875 C 9.675781 3.796875 9.628906 3.789062 9.578125 3.78125 C 9.515625 3.769531 9.460938 3.753906 9.421875 3.734375 C 9.390625 3.703125 9.351562 3.660156 9.3125 3.609375 C 9.28125 3.585938 9.25 3.5625 9.21875 3.53125 C 9.207031 3.507812 9.195312 3.484375 9.1875 3.453125 L 9.171875 3.375 L 5.53125 -8.078125 C 5.550781 -6.785156 5.59375 -4.851562 5.65625 -2.28125 C 5.65625 -2.21875 5.644531 -2.160156 5.625 -2.109375 C 5.613281 -2.066406 5.59375 -2.019531 5.5625 -1.96875 C 5.539062 -1.9375 5.519531 -1.90625 5.5 -1.875 C 5.445312 -1.832031 5.40625 -1.800781 5.375 -1.78125 C 5.34375 -1.757812 5.316406 -1.742188 5.296875 -1.734375 C 5.273438 -1.710938 5.253906 -1.695312 5.234375 -1.6875 L 4.390625 -1.4375 C 4.335938 -1.425781 4.289062 -1.425781 4.25 -1.4375 C 4.1875 -1.414062 4.140625 -1.414062 4.109375 -1.4375 L 3.953125 -1.484375 L 3.84375 -1.5625 C 3.820312 -1.582031 3.800781 -1.601562 3.78125 -1.625 L 3.734375 -1.6875 C 2.992188 -2.78125 1.882812 -4.414062 0.40625 -6.59375 L 2.078125 -1.375 C 2.085938 -1.320312 2.09375 -1.273438 2.09375 -1.234375 C 2.113281 -1.179688 2.117188 -1.132812 2.109375 -1.09375 C 2.109375 -1.039062 2.097656 -0.988281 2.078125 -0.9375 C 2.054688 -0.882812 2.035156 -0.84375 2.015625 -0.8125 C 1.984375 -0.78125 1.945312 -0.738281 1.90625 -0.6875 C 1.875 -0.65625 1.832031 -0.628906 1.78125 -0.609375 C 1.738281 -0.585938 1.695312 -0.570312 1.65625 -0.5625 C 1.601562 -0.539062 1.550781 -0.535156 1.5 -0.546875 C 1.445312 -0.554688 1.40625 -0.5625 1.375 -0.5625 C 1.3125 -0.570312 1.257812 -0.585938 1.21875 -0.609375 C 1.175781 -0.640625 1.132812 -0.679688 1.09375 -0.734375 C 1.0625 -0.765625 1.023438 -0.800781 0.984375 -0.84375 C 0.984375 -0.851562 0.976562 -0.867188 0.96875 -0.890625 L 0.953125 -0.96875 C 0.441406 -2.570312 -0.320312 -4.972656 -1.34375 -8.171875 C -1.332031 -8.234375 -1.328125 -8.289062 -1.328125 -8.34375 C -1.316406 -8.394531 -1.300781 -8.441406 -1.28125 -8.484375 C -1.257812 -8.515625 -1.234375 -8.550781 -1.203125 -8.59375 C -1.171875 -8.644531 -1.140625 -8.6875 -1.109375 -8.71875 C -1.085938 -8.726562 -1.050781 -8.742188 -1 -8.765625 C -0.957031 -8.785156 -0.941406 -8.796875 -0.953125 -8.796875 L -0.96875 -8.796875 C -0.976562 -8.785156 -0.976562 -8.78125 -0.96875 -8.78125 C -0.96875 -8.789062 -0.960938 -8.796875 -0.953125 -8.796875 Z M -0.90625 -8.8125 "/></g></g></g><g fill="#96001f" fill-opacity="1"><g transform="translate(364.627906, 190.726827)"><g><path d="M -0.875 -8.796875 L 5.5625 -10.84375 C 5.71875 -10.894531 5.875 -10.882812 6.03125 -10.8125 C 6.1875 -10.71875 6.285156 -10.597656 6.328125 -10.453125 C 6.378906 -10.304688 6.363281 -10.15625 6.28125 -10 C 6.207031 -9.84375 6.09375 -9.742188 5.9375 -9.703125 L 0.0625 -7.84375 L 0.796875 -5.484375 L 2.84375 -6.140625 C 3 -6.179688 3.15625 -6.171875 3.3125 -6.109375 C 3.457031 -6.015625 3.554688 -5.894531 3.609375 -5.75 C 3.660156 -5.601562 3.644531 -5.453125 3.5625 -5.296875 C 3.488281 -5.140625 3.375 -5.039062 3.21875 -5 L 1.171875 -4.34375 L 1.9375 -1.890625 L 4.703125 -2.765625 C 4.847656 -2.816406 5.003906 -2.800781 5.171875 -2.71875 C 5.316406 -2.644531 5.414062 -2.53125 5.46875 -2.375 C 5.519531 -2.226562 5.503906 -2.078125 5.421875 -1.921875 C 5.335938 -1.785156 5.226562 -1.6875 5.09375 -1.625 L 5.078125 -1.625 L 1.75 -0.5625 C 1.59375 -0.519531 1.441406 -0.539062 1.296875 -0.625 C 1.140625 -0.695312 1.035156 -0.804688 0.984375 -0.953125 L -0.140625 -4.515625 L -0.515625 -5.671875 L -1.265625 -8.046875 C -1.304688 -8.191406 -1.296875 -8.335938 -1.234375 -8.484375 C -1.171875 -8.617188 -1.070312 -8.71875 -0.9375 -8.78125 L -0.890625 -8.796875 Z M -0.875 -8.796875 "/></g></g></g></svg>