<svg xmlns="http://www.w3.org/2000/svg" xmlns:xlink="http://www.w3.org/1999/xlink" width="500" zoomAndPan="magnify" viewBox="0 0 375 374.999991" height="500" preserveAspectRatio="xMidYMid meet" version="1.0"><defs><g/><clipPath id="8201c8f62b"><path d="M 112 71.375 L 257 71.375 L 257 215 L 112 215 Z M 112 71.375 " clip-rule="nonzero"/></clipPath><clipPath id="ae0877ee2e"><path d="M 89 96 L 280 96 L 280 224.375 L 89 224.375 Z M 89 96 " clip-rule="nonzero"/></clipPath></defs><g clip-path="url(#8201c8f62b)"><path fill="#6a0a00" d="M 228.757812 86.898438 C 240.273438 96 248.761719 108.375 253.003906 122.453125 C 253.246094 123.179688 254.214844 126.695312 254.335938 127.546875 C 255.550781 132.644531 256.035156 137.984375 256.035156 143.203125 C 256.035156 152.179688 254.460938 161.039062 251.1875 169.289062 C 250.699219 170.382812 249.972656 171.230469 249.125 171.835938 C 249.25 172.929688 249.125 174.019531 248.640625 175.113281 C 236.515625 199.5 211.664062 214.910156 184.390625 214.910156 C 151.660156 214.910156 123.050781 192.707031 115.050781 161.039062 C 114.929688 160.917969 113.59375 154.121094 113.59375 154 C 112.988281 150.484375 112.746094 146.84375 112.746094 143.203125 C 112.746094 142.109375 112.746094 141.140625 112.867188 140.046875 C 112.867188 139.078125 113.113281 136.285156 113.234375 135.316406 C 114.324219 125.609375 117.234375 116.265625 122.082031 107.773438 L 126.445312 101.101562 C 139.902344 82.53125 161.355469 71.488281 184.390625 71.488281 C 197.847656 71.488281 210.9375 75.253906 222.335938 82.410156 C 222.699219 82.53125 228.273438 86.535156 228.757812 86.898438 Z M 228.757812 86.898438 " fill-opacity="1" fill-rule="evenodd"/></g><path fill="#ffb700" d="M 184.390625 76.585938 C 197.363281 76.585938 209.488281 80.226562 219.667969 86.65625 L 182.453125 88.597656 L 225.609375 90.902344 C 236.15625 99.273438 244.15625 110.679688 248.15625 123.90625 L 203.789062 126.210938 L 249.371094 128.636719 C 250.460938 133.367188 250.949219 138.222656 250.949219 143.199219 C 250.949219 151.8125 249.371094 159.941406 246.460938 167.464844 L 194.09375 170.253906 L 244.039062 172.804688 C 233.125 194.765625 210.582031 209.8125 184.394531 209.8125 C 153.359375 209.8125 127.300781 188.578125 119.902344 159.703125 L 181.246094 156.550781 L 118.570312 153.273438 C 118.082031 150 117.84375 146.601562 117.84375 143.207031 C 117.84375 142.234375 117.84375 141.265625 117.964844 140.292969 L 159.910156 138.109375 L 118.324219 135.925781 C 119.296875 126.703125 122.207031 118.089844 126.570312 110.324219 L 188.394531 107.171875 L 130.566406 104.128906 C 142.6875 87.382812 162.324219 76.585938 184.390625 76.585938 Z M 184.390625 76.585938 " fill-opacity="1" fill-rule="evenodd"/><g clip-path="url(#ae0877ee2e)"><path fill="#6a0a00" d="M 265.492188 203.136719 C 268.039062 205.441406 269.734375 208.71875 269.734375 212.355469 C 269.734375 218.90625 264.402344 224.25 257.730469 224.25 L 212.273438 224.25 C 211.183594 224.25 210.335938 224.003906 209.484375 223.398438 C 208.636719 224.003906 207.667969 224.25 206.570312 224.25 L 182.449219 224.25 C 180.632812 224.25 179.175781 223.398438 178.207031 222.066406 C 175.90625 223.398438 173.238281 224.25 170.449219 224.25 L 166.449219 224.25 C 166.085938 224.25 165.601562 224.25 165.238281 224.25 C 164.992188 224.25 164.75 224.25 164.511719 224.25 L 94.5625 224.25 C 92.378906 224.25 90.558594 223.035156 89.710938 220.972656 C 88.984375 218.910156 89.589844 216.726562 91.167969 215.269531 L 150.929688 163.703125 C 154.324219 160.550781 158.449219 156.546875 163.417969 156.789062 C 168.023438 156.910156 172.628906 161.277344 176.144531 163.949219 C 176.265625 164.070312 176.386719 164.070312 176.507812 164.191406 L 189.722656 175.597656 L 203.542969 164.554688 C 203.664062 164.429688 203.785156 164.429688 203.90625 164.308594 C 207.300781 162.125 211.425781 158.484375 215.542969 158.242188 C 219.664062 158 223.179688 160.667969 226.214844 162.976562 L 247.183594 178.261719 C 250.578125 169.523438 251.304688 158.242188 243.183594 151.8125 C 241.847656 152.785156 240.394531 153.632812 238.699219 154.242188 C 231.910156 156.910156 223.910156 155.574219 216.878906 154.484375 C 214.210938 154.121094 211.425781 154.484375 208.878906 154.972656 C 205 155.457031 200.636719 155.941406 198.332031 151.941406 C 197 149.390625 196.753906 146.238281 197.484375 143.445312 C 197.726562 142.839844 197.972656 142.230469 198.210938 141.746094 C 197.484375 141.140625 196.875 140.410156 196.394531 139.316406 C 195.425781 136.769531 195.546875 133.371094 196.027344 130.703125 C 197 126.578125 199.300781 123.058594 203.058594 120.996094 C 209.847656 117.109375 217.847656 120.507812 223.789062 116.019531 C 230.332031 111.042969 238.457031 108.375 246.582031 109.46875 L 253.367188 99.277344 C 254.335938 97.820312 255.914062 96.972656 257.730469 96.972656 C 259.546875 97.09375 261.125 98.0625 261.972656 99.644531 C 265.976562 106.4375 266.824219 113.113281 265.367188 120.511719 C 281.855469 140.527344 286.21875 184.695312 265.492188 203.136719 Z M 265.492188 203.136719 " fill-opacity="1" fill-rule="evenodd"/></g><path fill="#ffd48a" d="M 254.09375 219.152344 L 257.726562 219.152344 C 261.484375 219.152344 264.636719 216.121094 264.636719 212.355469 C 264.636719 209.082031 262.332031 206.410156 259.304688 205.683594 C 257.605469 205.199219 253.851562 205.320312 250.941406 205.320312 C 282.824219 196.824219 278.339844 141.257812 259.789062 121.84375 C 261.726562 115.050781 261.484375 108.859375 257.605469 102.066406 L 248.875 115.171875 C 240.753906 112.867188 232.753906 115.65625 226.8125 120.023438 C 219.296875 125.726562 211.050781 122.328125 205.597656 125.363281 C 200.144531 128.515625 200.382812 135.429688 201.113281 137.375 C 201.960938 139.3125 214.933594 135.070312 220.027344 140.289062 C 220.027344 140.289062 211.296875 138.710938 206.566406 140.652344 C 201.71875 142.472656 201.597656 147.203125 202.808594 149.507812 C 204.023438 151.691406 210.566406 148.417969 217.597656 149.507812 C 232.507812 151.8125 243.296875 153.148438 248.992188 131.914062 C 249.480469 138.832031 248.628906 144.410156 246.324219 147.808594 C 263.054688 161.035156 252.023438 190.152344 236.992188 198.769531 C 236.992188 198.769531 242.808594 191.128906 246.691406 184.328125 L 223.292969 167.101562 C 215.050781 161.15625 215.660156 162.613281 206.6875 168.558594 L 192.503906 179.71875 L 204.261719 194.886719 L 173.109375 168.070312 C 163.410156 160.914062 163.53125 158.851562 154.316406 167.46875 L 94.5625 219.152344 L 164.507812 219.152344 C 164.507812 219.152344 164.386719 219.03125 164.386719 218.90625 C 164.988281 219.03125 165.71875 219.152344 166.445312 219.152344 L 170.445312 219.152344 C 175.660156 219.152344 180.023438 214.785156 180.023438 209.566406 C 180.023438 204.710938 176.507812 200.710938 171.902344 199.980469 C 172.390625 199.980469 172.992188 199.859375 173.480469 199.859375 C 179.90625 199.859375 185.117188 205.195312 185.117188 211.503906 L 185.117188 211.75 C 185.117188 214.539062 184.027344 217.207031 182.449219 219.152344 L 206.570312 219.152344 C 206.085938 218.058594 205.847656 216.722656 205.847656 215.390625 L 205.847656 215.144531 C 205.847656 210.046875 209.964844 205.804688 215.179688 205.804688 C 215.542969 205.804688 216.027344 205.804688 216.390625 205.925781 C 212.753906 206.53125 209.847656 209.6875 209.847656 213.566406 C 209.847656 215.75 210.816406 217.691406 212.273438 219.148438 L 254.09375 219.148438 Z M 254.09375 219.152344 " fill-opacity="1" fill-rule="evenodd"/><g fill="#94b701" fill-opacity="1"><g transform="translate(18.078036, 289.190739)"><g><path d="M 1.796875 -47.8125 L 14.875 -47.8125 L 14.875 0 L 1.796875 0 Z M 1.796875 -47.8125 "/></g></g></g><g fill="#94b701" fill-opacity="1"><g transform="translate(34.758017, 289.190739)"><g><path d="M 1.796875 -47.8125 L 31.796875 -47.8125 C 34.597656 -47.8125 37.148438 -47.128906 39.453125 -45.765625 C 41.753906 -44.410156 43.582031 -42.582031 44.9375 -40.28125 C 46.300781 -37.988281 46.984375 -35.441406 46.984375 -32.640625 L 46.984375 0 L 33.90625 0 L 33.90625 -28.921875 C 33.90625 -30.441406 33.515625 -31.8125 32.734375 -33.03125 C 31.953125 -34.25 30.921875 -35.21875 29.640625 -35.9375 C 28.359375 -36.65625 26.914062 -37.015625 25.3125 -37.015625 L 14.875 -37.015625 L 14.875 0 L 1.796875 0 Z M 1.796875 -47.8125 "/></g></g></g><g fill="#94b701" fill-opacity="1"><g transform="translate(83.177966, 289.190739)"><g/></g></g><g fill="#94b701" fill-opacity="1"><g transform="translate(101.177954, 289.190739)"><g><path d="M 18.65625 -47.8125 L 43.6875 -47.8125 L 43.6875 -37.015625 L 22.140625 -37.015625 C 20.742188 -37.015625 19.453125 -36.59375 18.265625 -35.75 C 17.085938 -34.914062 16.5 -33.578125 16.5 -31.734375 C 16.5 -30.773438 16.78125 -29.882812 17.34375 -29.0625 C 17.90625 -28.25 18.625 -27.59375 19.5 -27.09375 C 20.375 -26.59375 21.296875 -26.34375 22.265625 -26.34375 L 43.6875 -26.34375 L 43.6875 -15.546875 L 22.5 -15.59375 C 20.9375 -15.59375 19.566406 -15.234375 18.390625 -14.515625 C 17.210938 -13.796875 16.289062 -12.835938 15.625 -11.640625 C 14.96875 -10.441406 14.640625 -9.140625 14.640625 -7.734375 C 14.640625 -6.253906 15 -4.9375 15.71875 -3.78125 C 16.4375 -2.625 17.40625 -1.703125 18.625 -1.015625 C 19.84375 -0.335938 21.210938 0 22.734375 0 L 43.6875 0 L 43.6875 10.796875 L 21.359375 10.796875 C 18.796875 10.796875 16.285156 10.351562 13.828125 9.46875 C 11.367188 8.59375 9.164062 7.34375 7.21875 5.71875 C 5.28125 4.101562 3.734375 2.1875 2.578125 -0.03125 C 1.421875 -2.25 0.84375 -4.695312 0.84375 -7.375 C 0.84375 -9.332031 1.234375 -11.257812 2.015625 -13.15625 C 2.796875 -15.0625 3.882812 -16.742188 5.28125 -18.203125 C 6.675781 -19.671875 8.316406 -20.703125 10.203125 -21.296875 C 8.796875 -21.773438 7.523438 -22.644531 6.390625 -23.90625 C 5.253906 -25.164062 4.351562 -26.644531 3.6875 -28.34375 C 3.03125 -30.050781 2.703125 -31.820312 2.703125 -33.65625 C 2.703125 -35.65625 3.160156 -37.515625 4.078125 -39.234375 C 4.992188 -40.953125 6.222656 -42.453125 7.765625 -43.734375 C 9.304688 -45.015625 11.023438 -46.015625 12.921875 -46.734375 C 14.828125 -47.453125 16.738281 -47.8125 18.65625 -47.8125 Z M 18.65625 -47.8125 "/></g></g></g><g fill="#94b701" fill-opacity="1"><g transform="translate(146.657904, 289.190739)"><g><path d="M 24.84375 -47.8125 L 50.578125 -47.8125 L 50.578125 -37.015625 L 27.546875 -37.015625 C 25.097656 -37.015625 22.894531 -36.394531 20.9375 -35.15625 C 18.976562 -33.914062 17.4375 -32.304688 16.3125 -30.328125 C 15.195312 -28.347656 14.640625 -26.21875 14.640625 -23.9375 C 14.640625 -21.257812 15.257812 -18.941406 16.5 -16.984375 C 17.738281 -15.023438 19.394531 -13.503906 21.46875 -12.421875 C 23.550781 -11.335938 25.816406 -10.796875 28.265625 -10.796875 L 37.5 -10.796875 L 37.5 -33.90625 L 50.578125 -33.90625 L 50.578125 0 L 24.90625 0 C 21.625 0 18.519531 -0.609375 15.59375 -1.828125 C 12.675781 -3.046875 10.117188 -4.742188 7.921875 -6.921875 C 5.722656 -9.109375 3.992188 -11.648438 2.734375 -14.546875 C 1.472656 -17.453125 0.84375 -20.582031 0.84375 -23.9375 C 0.84375 -27.375 1.421875 -30.539062 2.578125 -33.4375 C 3.734375 -36.34375 5.378906 -38.875 7.515625 -41.03125 C 9.660156 -43.195312 12.203125 -44.867188 15.140625 -46.046875 C 18.085938 -47.222656 21.320312 -47.8125 24.84375 -47.8125 Z M 24.84375 -47.8125 "/></g></g></g><g fill="#94b701" fill-opacity="1"><g transform="translate(199.037852, 289.190739)"><g><path d="M 17.34375 -37.015625 L 28.375 -5.515625 L 40.375 -24.0625 C 41.0625 -25.101562 41.539062 -26.019531 41.8125 -26.8125 C 42.09375 -27.613281 42.253906 -28.476562 42.296875 -29.40625 C 42.378906 -31.601562 41.8125 -33.421875 40.59375 -34.859375 C 39.375 -36.296875 37.5625 -37.015625 35.15625 -37.015625 Z M 0 -47.8125 L 13.5625 -47.8125 L 17.21875 -37.734375 L 17.21875 -47.8125 L 37.859375 -47.8125 C 41.617188 -47.8125 44.859375 -47.0625 47.578125 -45.5625 C 50.296875 -44.0625 52.394531 -42.039062 53.875 -39.5 C 55.351562 -36.96875 56.09375 -34.117188 56.09375 -30.953125 C 56.09375 -28.515625 55.765625 -26.351562 55.109375 -24.46875 C 54.453125 -22.59375 53.722656 -21.015625 52.921875 -19.734375 L 33.234375 10.796875 L 17.765625 10.796875 L 24.59375 0 L 16.5 0 Z M 0 -47.8125 "/></g></g></g><g fill="#94b701" fill-opacity="1"><g transform="translate(255.977801, 289.190739)"><g><path d="M 1.796875 -47.8125 L 26.765625 -47.8125 C 30.203125 -47.8125 33.390625 -47.203125 36.328125 -45.984375 C 39.265625 -44.765625 41.832031 -43.066406 44.03125 -40.890625 C 46.238281 -38.710938 47.953125 -36.171875 49.171875 -33.265625 C 50.390625 -30.367188 51 -27.21875 51 -23.8125 C 51 -20.695312 50.425781 -17.707031 49.28125 -14.84375 C 48.144531 -11.988281 46.546875 -9.441406 44.484375 -7.203125 C 42.429688 -4.960938 40.023438 -3.203125 37.265625 -1.921875 C 34.503906 -0.640625 31.503906 0 28.265625 0 L 17.765625 0 L 17.765625 -10.796875 L 24.84375 -10.796875 C 27.082031 -10.796875 29.128906 -11.273438 30.984375 -12.234375 C 32.847656 -13.203125 34.347656 -14.65625 35.484375 -16.59375 C 36.628906 -18.53125 37.203125 -20.9375 37.203125 -23.8125 C 37.203125 -26.457031 36.609375 -28.769531 35.421875 -30.75 C 34.242188 -32.726562 32.695312 -34.265625 30.78125 -35.359375 C 28.863281 -36.460938 26.785156 -37.015625 24.546875 -37.015625 L 14.875 -37.015625 L 14.875 10.796875 L 1.796875 10.796875 Z M 1.796875 -47.8125 "/></g></g></g><g fill="#94b701" fill-opacity="1"><g transform="translate(307.817748, 289.190739)"><g><path d="M 0.59375 -47.8125 L 48.484375 -47.8125 L 48.484375 -37.015625 L 31.140625 -37.015625 L 31.140625 0 L 17.9375 0 L 17.9375 -37.015625 L 0.59375 -37.015625 Z M 0.59375 -47.8125 "/></g></g></g><g fill="#94b701" fill-opacity="1"><g transform="translate(18.307099, 221.414414)"><g><path d="M 0.265625 -12.546875 L 9.625 -12.546875 L 9.625 -9.34375 C 9.414062 -9.539062 9.171875 -9.691406 8.890625 -9.796875 C 8.617188 -9.898438 8.347656 -9.972656 8.078125 -10.015625 C 7.816406 -10.054688 7.578125 -10.078125 7.359375 -10.078125 L 6.390625 -10.078125 L 6.390625 -1.609375 C 6.390625 -1.285156 6.425781 -0.96875 6.5 -0.65625 C 6.570312 -0.34375 6.6875 -0.125 6.84375 0 L 3 0 C 3.144531 -0.125 3.253906 -0.34375 3.328125 -0.65625 C 3.410156 -0.976562 3.453125 -1.300781 3.453125 -1.625 L 3.453125 -10.078125 L 2.515625 -10.078125 C 2.304688 -10.078125 2.066406 -10.054688 1.796875 -10.015625 C 1.523438 -9.972656 1.253906 -9.898438 0.984375 -9.796875 C 0.710938 -9.691406 0.472656 -9.539062 0.265625 -9.34375 Z M 0.265625 -12.546875 "/></g></g></g><g fill="#94b701" fill-opacity="1"><g transform="translate(28.31407, 221.414414)"><g><path d="M 0.71875 -10.921875 C 0.71875 -11.242188 0.675781 -11.5625 0.59375 -11.875 C 0.519531 -12.1875 0.410156 -12.410156 0.265625 -12.546875 L 5.6875 -12.546875 C 6.207031 -12.546875 6.722656 -12.457031 7.234375 -12.28125 C 7.753906 -12.113281 8.222656 -11.863281 8.640625 -11.53125 C 9.066406 -11.195312 9.40625 -10.78125 9.65625 -10.28125 C 9.914062 -9.78125 10.046875 -9.203125 10.046875 -8.546875 C 10.046875 -7.640625 9.800781 -6.882812 9.3125 -6.28125 C 8.820312 -5.6875 8.191406 -5.273438 7.421875 -5.046875 L 8.15625 -3.078125 C 8.519531 -2.117188 8.859375 -1.394531 9.171875 -0.90625 C 9.484375 -0.425781 9.765625 -0.125 10.015625 0 L 5.71875 0 C 5.8125 -0.113281 5.863281 -0.273438 5.875 -0.484375 C 5.894531 -0.691406 5.84375 -0.941406 5.71875 -1.234375 L 3.640625 -7 L 3.640625 -1.609375 C 3.640625 -1.285156 3.675781 -0.96875 3.75 -0.65625 C 3.832031 -0.34375 3.945312 -0.125 4.09375 0 L 0.265625 0 C 0.410156 -0.125 0.519531 -0.34375 0.59375 -0.65625 C 0.675781 -0.976562 0.71875 -1.300781 0.71875 -1.625 Z M 3.640625 -7 L 5.5 -7 C 5.875 -7 6.179688 -7.078125 6.421875 -7.234375 C 6.660156 -7.390625 6.84375 -7.585938 6.96875 -7.828125 C 7.09375 -8.066406 7.15625 -8.304688 7.15625 -8.546875 C 7.15625 -8.953125 7.015625 -9.304688 6.734375 -9.609375 C 6.460938 -9.921875 6.0625 -10.078125 5.53125 -10.078125 L 3.640625 -10.078125 Z M 3.640625 -7 "/></g></g></g><g fill="#94b701" fill-opacity="1"><g transform="translate(38.749909, 221.414414)"><g><path d="M 1.359375 0 C 1.148438 -0.613281 0.976562 -1.191406 0.84375 -1.734375 C 0.71875 -2.273438 0.617188 -2.832031 0.546875 -3.40625 C 0.484375 -3.976562 0.453125 -4.613281 0.453125 -5.3125 C 0.453125 -6.03125 0.539062 -6.742188 0.71875 -7.453125 C 0.90625 -8.171875 1.175781 -8.84375 1.53125 -9.46875 C 1.894531 -10.101562 2.335938 -10.664062 2.859375 -11.15625 C 3.390625 -11.644531 4 -12.03125 4.6875 -12.3125 C 5.382812 -12.59375 6.15625 -12.734375 7 -12.734375 C 7.40625 -12.734375 7.800781 -12.6875 8.1875 -12.59375 C 8.582031 -12.507812 8.929688 -12.378906 9.234375 -12.203125 C 9.535156 -12.035156 9.742188 -11.832031 9.859375 -11.59375 L 9.859375 -1.625 C 9.859375 -1.300781 9.894531 -0.976562 9.96875 -0.65625 C 10.050781 -0.34375 10.171875 -0.125 10.328125 0 L 6.484375 0 C 6.628906 -0.125 6.738281 -0.34375 6.8125 -0.65625 C 6.894531 -0.96875 6.9375 -1.285156 6.9375 -1.609375 L 6.9375 -3.75 L 3.453125 -3.75 C 3.546875 -3.007812 3.71875 -2.332031 3.96875 -1.71875 C 4.226562 -1.113281 4.5625 -0.539062 4.96875 0 Z M 3.46875 -6.21875 L 6.9375 -6.21875 L 6.953125 -10.0625 C 6.378906 -10.0625 5.890625 -9.941406 5.484375 -9.703125 C 5.078125 -9.472656 4.734375 -9.164062 4.453125 -8.78125 C 4.179688 -8.394531 3.96875 -7.976562 3.8125 -7.53125 C 3.65625 -7.082031 3.539062 -6.644531 3.46875 -6.21875 Z M 3.46875 -6.21875 "/></g></g></g><g fill="#94b701" fill-opacity="1"><g transform="translate(49.328708, 221.414414)"><g><path d="M 1.796875 -8.859375 C 1.628906 -9.359375 1.472656 -9.828125 1.328125 -10.265625 C 1.191406 -10.710938 1.03125 -11.125 0.84375 -11.5 C 0.65625 -11.875 0.414062 -12.222656 0.125 -12.546875 L 4.6875 -12.546875 C 4.53125 -12.410156 4.414062 -12.25 4.34375 -12.0625 C 4.269531 -11.882812 4.234375 -11.710938 4.234375 -11.546875 C 4.234375 -11.335938 4.28125 -11.03125 4.375 -10.625 C 4.476562 -10.21875 4.609375 -9.75 4.765625 -9.21875 C 4.921875 -8.6875 5.085938 -8.132812 5.265625 -7.5625 C 5.441406 -6.988281 5.617188 -6.429688 5.796875 -5.890625 C 5.972656 -5.359375 6.117188 -4.878906 6.234375 -4.453125 C 6.429688 -4.671875 6.617188 -4.957031 6.796875 -5.3125 C 6.972656 -5.675781 7.128906 -6.070312 7.265625 -6.5 C 7.398438 -6.9375 7.503906 -7.378906 7.578125 -7.828125 C 7.648438 -8.285156 7.6875 -8.707031 7.6875 -9.09375 C 7.6875 -9.707031 7.628906 -10.226562 7.515625 -10.65625 C 7.410156 -11.09375 7.285156 -11.445312 7.140625 -11.71875 C 6.992188 -12 6.863281 -12.207031 6.75 -12.34375 C 6.644531 -12.476562 6.59375 -12.546875 6.59375 -12.546875 L 9.53125 -12.546875 C 9.53125 -12.546875 9.582031 -12.5 9.6875 -12.40625 C 9.800781 -12.320312 9.929688 -12.171875 10.078125 -11.953125 C 10.222656 -11.734375 10.351562 -11.421875 10.46875 -11.015625 C 10.582031 -10.609375 10.640625 -10.097656 10.640625 -9.484375 C 10.640625 -8.640625 10.515625 -7.785156 10.265625 -6.921875 C 10.023438 -6.054688 9.71875 -5.207031 9.34375 -4.375 C 8.96875 -3.550781 8.566406 -2.765625 8.140625 -2.015625 C 7.710938 -1.273438 7.3125 -0.601562 6.9375 0 L 4.53125 0 C 4.320312 -0.695312 4.128906 -1.332031 3.953125 -1.90625 C 3.773438 -2.488281 3.609375 -3.046875 3.453125 -3.578125 C 3.296875 -4.109375 3.132812 -4.640625 2.96875 -5.171875 C 2.800781 -5.710938 2.617188 -6.28125 2.421875 -6.875 C 2.234375 -7.476562 2.023438 -8.140625 1.796875 -8.859375 Z M 1.796875 -8.859375 "/></g></g></g><g fill="#94b701" fill-opacity="1"><g transform="translate(60.219414, 221.414414)"><g><path d="M 6.671875 0.1875 C 5.722656 0.1875 4.867188 0.0195312 4.109375 -0.3125 C 3.347656 -0.644531 2.691406 -1.109375 2.140625 -1.703125 C 1.597656 -2.296875 1.179688 -2.984375 0.890625 -3.765625 C 0.597656 -4.546875 0.453125 -5.382812 0.453125 -6.28125 C 0.453125 -7.175781 0.597656 -8.007812 0.890625 -8.78125 C 1.179688 -9.5625 1.597656 -10.25 2.140625 -10.84375 C 2.691406 -11.4375 3.347656 -11.898438 4.109375 -12.234375 C 4.867188 -12.566406 5.722656 -12.734375 6.671875 -12.734375 C 7.597656 -12.734375 8.453125 -12.601562 9.234375 -12.34375 C 10.015625 -12.082031 10.65625 -11.675781 11.15625 -11.125 C 11.039062 -10.851562 10.929688 -10.570312 10.828125 -10.28125 C 10.734375 -10 10.644531 -9.738281 10.5625 -9.5 C 10.488281 -9.257812 10.425781 -9.0625 10.375 -8.90625 C 10.332031 -8.757812 10.3125 -8.6875 10.3125 -8.6875 C 10.3125 -8.6875 10.25 -8.765625 10.125 -8.921875 C 10.007812 -9.085938 9.820312 -9.269531 9.5625 -9.46875 C 9.3125 -9.675781 8.988281 -9.859375 8.59375 -10.015625 C 8.195312 -10.171875 7.71875 -10.25 7.15625 -10.25 C 6.488281 -10.25 5.867188 -10.101562 5.296875 -9.8125 C 4.722656 -9.519531 4.257812 -9.078125 3.90625 -8.484375 C 3.550781 -7.898438 3.375 -7.160156 3.375 -6.265625 C 3.375 -5.878906 3.410156 -5.523438 3.484375 -5.203125 C 3.554688 -4.878906 3.65625 -4.582031 3.78125 -4.3125 C 3.738281 -5.039062 3.851562 -5.695312 4.125 -6.28125 C 4.40625 -6.863281 4.804688 -7.328125 5.328125 -7.671875 C 5.859375 -8.023438 6.46875 -8.203125 7.15625 -8.203125 C 7.414062 -8.203125 7.675781 -8.171875 7.9375 -8.109375 C 8.207031 -8.046875 8.441406 -7.957031 8.640625 -7.84375 C 8.847656 -7.726562 8.988281 -7.601562 9.0625 -7.46875 L 9.0625 -4.609375 C 8.800781 -4.828125 8.4375 -5.023438 7.96875 -5.203125 C 7.5 -5.390625 7.007812 -5.484375 6.5 -5.484375 C 5.976562 -5.484375 5.507812 -5.414062 5.09375 -5.28125 C 4.675781 -5.144531 4.378906 -4.941406 4.203125 -4.671875 C 4.023438 -4.398438 4.03125 -4.050781 4.21875 -3.625 C 4.570312 -3.1875 5.003906 -2.851562 5.515625 -2.625 C 6.023438 -2.40625 6.570312 -2.296875 7.15625 -2.296875 C 7.71875 -2.296875 8.195312 -2.375 8.59375 -2.53125 C 8.988281 -2.695312 9.3125 -2.878906 9.5625 -3.078125 C 9.820312 -3.285156 10.007812 -3.46875 10.125 -3.625 C 10.25 -3.789062 10.3125 -3.875 10.3125 -3.875 C 10.3125 -3.875 10.332031 -3.796875 10.375 -3.640625 C 10.425781 -3.492188 10.488281 -3.296875 10.5625 -3.046875 C 10.644531 -2.804688 10.734375 -2.539062 10.828125 -2.25 C 10.929688 -1.96875 11.039062 -1.695312 11.15625 -1.4375 C 10.65625 -0.875 10.015625 -0.460938 9.234375 -0.203125 C 8.453125 0.0546875 7.597656 0.1875 6.671875 0.1875 Z M 6.671875 0.1875 "/></g></g></g><g fill="#94b701" fill-opacity="1"><g transform="translate(71.500001, 221.414414)"><g><path d="M 0.265625 0 C 0.410156 -0.125 0.519531 -0.34375 0.59375 -0.65625 C 0.675781 -0.976562 0.71875 -1.300781 0.71875 -1.625 L 0.71875 -10.921875 C 0.71875 -11.242188 0.675781 -11.5625 0.59375 -11.875 C 0.519531 -12.1875 0.410156 -12.410156 0.265625 -12.546875 L 4.09375 -12.546875 C 3.945312 -12.410156 3.832031 -12.1875 3.75 -11.875 C 3.675781 -11.570312 3.640625 -11.257812 3.640625 -10.9375 L 3.640625 -2.46875 L 7.03125 -2.46875 C 7.25 -2.46875 7.488281 -2.488281 7.75 -2.53125 C 8.019531 -2.570312 8.289062 -2.644531 8.5625 -2.75 C 8.84375 -2.851562 9.085938 -3.003906 9.296875 -3.203125 L 9.296875 0 Z M 0.265625 0 "/></g></g></g></svg>